<?xml version="1.0" encoding="utf-8"?>
<!-- Generator: Adobe Illustrator 22.0.1, SVG Export Plug-In . SVG Version: 6.00 Build 0)  -->
<svg version="1.1" id="Layer_1" xmlns="http://www.w3.org/2000/svg" xmlns:xlink="http://www.w3.org/1999/xlink" x="0px" y="0px"
	 viewBox="0 0 795 408" style="enable-background:new 0 0 795 408;" xml:space="preserve">
<style type="text/css">
	.st0{fill:#020203;}
	.st1{filter:url(#Adobe_OpacityMaskFilter);}
	.st2{fill:#FFFFFF;}
	.st3{mask:url(#mask-2_1_);fill:#020203;}
	.st4{filter:url(#Adobe_OpacityMaskFilter_1_);}
	.st5{mask:url(#mask-2_2_);fill:#020203;}
	.st6{filter:url(#Adobe_OpacityMaskFilter_2_);}
	.st7{mask:url(#mask-2_3_);fill:#020203;}
	.st8{filter:url(#Adobe_OpacityMaskFilter_3_);}
	.st9{mask:url(#mask-2_4_);fill:#020203;}
	.st10{filter:url(#Adobe_OpacityMaskFilter_4_);}
	.st11{mask:url(#mask-2_5_);fill:#020203;}
	.st12{filter:url(#Adobe_OpacityMaskFilter_5_);}
	.st13{mask:url(#mask-2_6_);fill:#020203;}
	.st14{filter:url(#Adobe_OpacityMaskFilter_6_);}
	.st15{mask:url(#mask-2_7_);fill:#010101;}
	.st16{filter:url(#Adobe_OpacityMaskFilter_7_);}
	.st17{mask:url(#mask-2_8_);fill:#010101;}
	.st18{filter:url(#Adobe_OpacityMaskFilter_8_);}
	.st19{mask:url(#mask-2_9_);fill:#010101;}
	.st20{filter:url(#Adobe_OpacityMaskFilter_9_);}
	.st21{mask:url(#mask-2_10_);fill:#010101;}
	.st22{filter:url(#Adobe_OpacityMaskFilter_10_);}
	.st23{mask:url(#mask-2_11_);fill:#1F3CA6;}
	.st24{filter:url(#Adobe_OpacityMaskFilter_11_);}
	.st25{mask:url(#mask-2_12_);fill:#010101;}
	.st26{filter:url(#Adobe_OpacityMaskFilter_12_);}
	.st27{mask:url(#mask-2_13_);fill:#010101;}
	.st28{filter:url(#Adobe_OpacityMaskFilter_13_);}
	.st29{mask:url(#mask-2_14_);fill:#010101;}
	.st30{filter:url(#Adobe_OpacityMaskFilter_14_);}
	.st31{mask:url(#mask-2_15_);fill:#010101;}
	.st32{filter:url(#Adobe_OpacityMaskFilter_15_);}
	.st33{mask:url(#mask-2_16_);fill:#010101;}
	.st34{filter:url(#Adobe_OpacityMaskFilter_16_);}
	.st35{mask:url(#mask-2_17_);fill:#010101;}
	.st36{filter:url(#Adobe_OpacityMaskFilter_17_);}
	.st37{mask:url(#mask-2_18_);fill:#010101;}
	.st38{filter:url(#Adobe_OpacityMaskFilter_18_);}
	.st39{mask:url(#mask-2_19_);fill:#010101;}
	.st40{filter:url(#Adobe_OpacityMaskFilter_19_);}
	.st41{mask:url(#mask-2_20_);fill:#010101;}
	.st42{filter:url(#Adobe_OpacityMaskFilter_20_);}
	.st43{mask:url(#mask-2_21_);fill:#010101;}
	.st44{filter:url(#Adobe_OpacityMaskFilter_21_);}
	.st45{mask:url(#mask-2_22_);fill:#010101;}
	.st46{filter:url(#Adobe_OpacityMaskFilter_22_);}
	.st47{mask:url(#mask-2_23_);fill:#010101;}
	.st48{filter:url(#Adobe_OpacityMaskFilter_23_);}
	.st49{mask:url(#mask-2_24_);fill:#010101;}
	.st50{filter:url(#Adobe_OpacityMaskFilter_24_);}
	.st51{mask:url(#mask-2_25_);fill:#010101;}
	.st52{filter:url(#Adobe_OpacityMaskFilter_25_);}
	.st53{mask:url(#mask-2_26_);fill:#010101;}
	.st54{filter:url(#Adobe_OpacityMaskFilter_26_);}
	.st55{mask:url(#mask-2_27_);fill:#010101;}
	.st56{filter:url(#Adobe_OpacityMaskFilter_27_);}
	.st57{mask:url(#mask-2_28_);fill:#010101;}
	.st58{filter:url(#Adobe_OpacityMaskFilter_28_);}
	.st59{mask:url(#mask-2_29_);fill:#010101;}
	.st60{filter:url(#Adobe_OpacityMaskFilter_29_);}
	.st61{mask:url(#mask-2_30_);fill:#010101;}
	.st62{filter:url(#Adobe_OpacityMaskFilter_30_);}
	.st63{mask:url(#mask-2_31_);fill:#010101;}
	.st64{filter:url(#Adobe_OpacityMaskFilter_31_);}
	.st65{mask:url(#mask-2_32_);fill:#010101;}
	.st66{filter:url(#Adobe_OpacityMaskFilter_32_);}
	.st67{mask:url(#mask-2_33_);fill:#010101;}
	.st68{filter:url(#Adobe_OpacityMaskFilter_33_);}
	.st69{mask:url(#mask-2_34_);fill:#010101;}
	.st70{filter:url(#Adobe_OpacityMaskFilter_34_);}
	.st71{mask:url(#mask-2_35_);fill:#010101;}
	.st72{filter:url(#Adobe_OpacityMaskFilter_35_);}
	.st73{mask:url(#mask-2_36_);fill:#010101;}
	.st74{filter:url(#Adobe_OpacityMaskFilter_36_);}
	.st75{mask:url(#mask-2_37_);fill:#010101;}
	.st76{filter:url(#Adobe_OpacityMaskFilter_37_);}
	.st77{mask:url(#mask-2_38_);fill:#010101;}
	.st78{filter:url(#Adobe_OpacityMaskFilter_38_);}
	.st79{mask:url(#mask-2_39_);fill:#010101;}
	.st80{fill:#010101;}
</style>
<title>Group 59</title>
<desc>Created with Sketch.</desc>
<g id="Client---V04">
	<g id="Group-59" transform="translate(1.000000, 1.000000)">
		<g id="Page-1" transform="translate(90.000000, 54.000000)">
			<path id="Fill-1" class="st0" d="M261.7,212.3l0.7-3.3l-0.4-2.6l-0.2-3.1l-0.6-3.8l-4.7,1.5h-2.1l-3.4,0l1.1,3.8l1,4.2l-1.1,3.1
				l6.3,2.3L261.7,212.3z M250.8,200l0.1,0.5l3.5,0h2.1l4.6-1.5l-0.2-0.3c-2.7,0.7-3,0.8-3.1,0.8v0c-0.1,0-1.3,0.2-2,0.4l0,0
				L250.8,200z M262.5,203.3l0.2,3.1l0.4,2.6l-0.7,3.6l-4,2.4l-7.1-2.6l1.3-3.4l-0.9-4.1l-1.6-5.4l5.7-0.2c1.6-0.3,1.9-0.4,2-0.4
				c0.2,0,2.1-0.5,3.2-0.8l0.2-0.1l0.6,0.9l0,0.2c0,0,0,0,0,0L262.5,203.3z"/>
			<path id="Fill-3" class="st0" d="M253.5,244.3c0-0.2-0.2-0.3-0.3-0.3c-0.1,0.1-0.2,0.3-0.2,0.5l0.3,1.7l5.4,0.8c0,0,0,0,0,0
				c0.1,0,0.2-0.2,0.3-0.4c0-0.2-0.1-0.4-0.2-0.4l-5-0.7L253.5,244.3z"/>
			<path id="Fill-5" class="st0" d="M255.3,240C255.3,240,255.3,240,255.3,240l5.5-1.3c0.2,0,0.3-0.2,0.2-0.4c0-0.2-0.2-0.3-0.4-0.3
				l-5.4,1.3c-0.2,0-0.3,0.2-0.2,0.4C255,239.9,255.2,240,255.3,240"/>
			<path id="Fill-7" class="st0" d="M260.6,213l-2.9,2.1l-4.4-0.7c-0.2,0-0.3,0.1-0.3,0.4c0,0.2,0.1,0.4,0.2,0.5l4.6,0.7l3-2.2
				c0.1-0.1,0.2-0.3,0.1-0.6C260.9,213,260.7,212.9,260.6,213"/>
			<path id="Fill-9" class="st0" d="M255,213.3c-0.1-0.2-0.2-0.3-0.4-0.2l-3.4,2.1c-0.2,0.1-0.2,0.4-0.2,0.6c0,0.2,0.2,0.3,0.3,0.3
				c0,0,0.1,0,0.1,0l3.4-2.1C255,213.8,255,213.5,255,213.3"/>
			<path id="Fill-11" class="st0" d="M240.5,210.1c-0.1-0.1-0.3-0.1-0.4-0.1c-0.1,0.1-0.2,0.3-0.1,0.4l3.2,3.9l5.3,2.6
				c0,0,0.1,0,0.1,0c0.1,0,0.2-0.1,0.3-0.2c0.1-0.1,0-0.3-0.1-0.4l-5.2-2.5L240.5,210.1z"/>
			<path id="Fill-13" class="st0" d="M240.4,235c0.1,0,0.2,0,0.3-0.1l2.3-2.3c0.1-0.1,0.1-0.3,0-0.5c-0.1-0.1-0.4-0.1-0.5,0
				l-2.3,2.3c-0.1,0.1-0.1,0.3,0,0.5C240.2,235,240.3,235,240.4,235"/>
			<path id="Fill-15" class="st0" d="M246.7,237l-3.4,0.2c-0.2,0-0.3,0.2-0.3,0.4c0,0.2,0.1,0.4,0.3,0.4c0,0,0,0,0,0l3.4-0.2
				c0.2,0,0.3-0.2,0.3-0.4C247,237.2,246.9,237,246.7,237"/>
			<path id="Fill-17" class="st0" d="M239.2,246.7l3.8,0.3l2.8-1.4c0.1-0.1,0.2-0.3,0.1-0.4c-0.1-0.2-0.2-0.2-0.3-0.2l-2.7,1.3
				l-3.6-0.3c-0.1,0-0.3,0.1-0.3,0.3C239,246.5,239.1,246.7,239.2,246.7"/>
			<path id="Fill-19" class="st0" d="M242.3,253.4c-0.1,0-0.3,0.1-0.3,0.3c0,0.2,0.1,0.3,0.3,0.3h3.8l2.8-2.4
				c0.1-0.1,0.1-0.3,0.1-0.4c-0.1-0.1-0.2-0.2-0.4-0.1l-2.7,2.3H242.3z"/>
			<g id="Clip-22">
			</g>
			<defs>
				<filter id="Adobe_OpacityMaskFilter" filterUnits="userSpaceOnUse" x="240" y="297" width="27" height="21">
					<feColorMatrix  type="matrix" values="1 0 0 0 0  0 1 0 0 0  0 0 1 0 0  0 0 0 1 0"/>
				</filter>
			</defs>
			<mask maskUnits="userSpaceOnUse" x="240" y="297" width="27" height="21" id="mask-2_1_">
				<g class="st1">
					<polygon id="path-1_1_" class="st2" points="0,353 296,353 296,0 0,0 					"/>
				</g>
			</mask>
			<path id="Rectangle-12" class="st3" d="M240.5,297.5v20h26v-20H240.5z M240,297h27v21h-27V297z"/>
			<defs>
				<filter id="Adobe_OpacityMaskFilter_1_" filterUnits="userSpaceOnUse" x="240" y="275" width="27" height="19">
					<feColorMatrix  type="matrix" values="1 0 0 0 0  0 1 0 0 0  0 0 1 0 0  0 0 0 1 0"/>
				</filter>
			</defs>
			<mask maskUnits="userSpaceOnUse" x="240" y="275" width="27" height="19" id="mask-2_2_">
				<g class="st4">
					<polygon id="path-1_2_" class="st2" points="0,353 296,353 296,0 0,0 					"/>
				</g>
			</mask>
			<path id="Rectangle-12-Copy" class="st5" d="M240.5,275.5v18h26v-18H240.5z M240,275h27v19h-27V275z"/>
			<defs>
				<filter id="Adobe_OpacityMaskFilter_2_" filterUnits="userSpaceOnUse" x="240" y="320" width="28" height="21">
					<feColorMatrix  type="matrix" values="1 0 0 0 0  0 1 0 0 0  0 0 1 0 0  0 0 0 1 0"/>
				</filter>
			</defs>
			<mask maskUnits="userSpaceOnUse" x="240" y="320" width="28" height="21" id="mask-2_3_">
				<g class="st6">
					<polygon id="path-1_3_" class="st2" points="0,353 296,353 296,0 0,0 					"/>
				</g>
			</mask>
			<path id="Fill-24" class="st7" d="M240.6,340.5v-19.9h26.3l0.5,19.9H240.6z M240,320v21h28l-0.5-21H240z"/>
			<defs>
				<filter id="Adobe_OpacityMaskFilter_3_" filterUnits="userSpaceOnUse" x="240" y="343" width="28" height="10">
					<feColorMatrix  type="matrix" values="1 0 0 0 0  0 1 0 0 0  0 0 1 0 0  0 0 0 1 0"/>
				</filter>
			</defs>
			<mask maskUnits="userSpaceOnUse" x="240" y="343" width="28" height="10" id="mask-2_4_">
				<g class="st8">
					<polygon id="path-1_4_" class="st2" points="0,353 296,353 296,0 0,0 					"/>
				</g>
			</mask>
			<path id="Fill-25" class="st9" d="M240,352.7c0,0.2,0.1,0.3,0.3,0.3c0.2,0,0.3-0.1,0.3-0.3v-9.1h26.9v8.9c0,0.2,0.1,0.3,0.3,0.3
				c0.2,0,0.3-0.1,0.3-0.3V343h-28V352.7z"/>
			<defs>
				<filter id="Adobe_OpacityMaskFilter_4_" filterUnits="userSpaceOnUse" x="214" y="140" width="61" height="213">
					<feColorMatrix  type="matrix" values="1 0 0 0 0  0 1 0 0 0  0 0 1 0 0  0 0 0 1 0"/>
				</filter>
			</defs>
			<mask maskUnits="userSpaceOnUse" x="214" y="140" width="61" height="213" id="mask-2_5_">
				<g class="st10">
					<polygon id="path-1_5_" class="st2" points="0,353 296,353 296,0 0,0 					"/>
				</g>
			</mask>
			<path id="Fill-26" class="st11" d="M268,181.8l-1.8-0.8l-0.3,1.4l-1-0.4l-1-0.2l0.2-1.6l0.5-3.4l0-0.5l1.5-1.7v-1.2
				c0-0.2-0.1-0.3-0.3-0.3c-0.2,0-0.3,0.1-0.3,0.3v0.9l-0.9,1.1l0-2.2l0.6-2.7l0.7-3.3l-0.1-0.6c0-0.2-0.2-0.3-0.3-0.2
				c-0.2,0-0.3,0.2-0.2,0.3l0.1,0.5l-0.7,3.2l-0.6,2.8v3.5l-0.5,3.3l-0.9,6.5l0.1,2.4l-2.3,0.4h-1.5l-1.5-0.3l-2.5-0.2l0,0
				c-0.1,0-2.7,0.2-2.9,0.3c-0.1,0-0.7,0-1.2,0h-1.6c-1.2-0.5-1.3-0.5-1.4-0.5h-1.7l-3-0.2c-0.1,0-2.1-0.3-2.3-0.3
				c-0.1,0-0.1,0-0.2,0c-0.5-0.1-0.9-0.2-1.1-0.2h-1.2l-2.1-0.8l-0.8-3.6V178l-1-4c0,0,0-0.1,0-0.1c0,0,0,0,0,0l0.6-1.1l1.9-5.7
				l3.7-8.2c0-0.1,0-0.1,0-0.2l0.7-0.1l1.9-0.7h1.2l1.2-2l1.9-0.6l3.8,0.9l2.8,1.1l1.9,1.1L255,159l-2.6,0.5l-4.1-1.1
				c-0.1,0-0.3,0-0.3,0.2c0,0.1,0,0.3,0.2,0.3l4.2,1.1l2.9-0.6l1.5-1h1l1.6,0.2l0.6,0.2l0.8,0.3l1.4,0.8l1.5,1.3h1.5l1.1,0.8
				l0.6,1.7l1.1,1.8l0.2,1.2l1.1,1.1l0.3,0.5l1,2l0.9,1.9l0.3,1.4l-0.9,1.4l0.4,2.2c0,0.1,0.1,0.2,0.3,0.2c0,0,0,0,0,0
				c0.2,0,0.3-0.2,0.2-0.3l-0.3-2l0.9-1.4l-0.2-1l1.9,1.6l0.5,2l-2.7,3.3l-2,1.5L268,181.8z M266.1,188.7h-2.9l0-2.1l0.6-4.3
				l0.9,0.2l1.4,0.6V188.7z M236.3,190.2v-2.4l1.9,0.8h1.3c0.2,0,0.7,0.1,1,0.1c0.1,0,0.2,0,0.2,0c0.3,0,2.3,0.3,2.4,0.3l3.1,0.2
				l1.7,0c0.1,0,0.7,0.3,1.2,0.5l0.1,0l1.7,0c0.2,0,1.1,0,1.2,0c0.1,0,2.1-0.2,2.8-0.2l2.5,0.2l1.5,0.3l1.6,0l2.3-0.4l0,0.9l0.1,0.6
				l-0.6,0l-0.5,0l0,0c-0.2,0-0.5,0.1-0.6,0c-0.2-0.2-0.6-0.1-0.8-0.1h-4.1l-0.5-0.2l-0.5-0.4h-1.1l-0.6,0.4h-4.4
				c-0.1,0-0.5-0.1-0.7-0.3l-0.1,0h-3.7l-3.6-0.5l-3,0L236.3,190.2z M243.8,235.1l4.7-1.8l-0.1,1.6L243.8,235.1z M248.7,238.1
				l-0.2,1.7l-7.2-1.6l7-3.1l0,0.9l0,0L248.7,238.1z M264.2,236.1l-1.3-0.2l1.2-1.2l0.1,1.3L264.2,236.1z M263.3,194.7l0.9,6.8
				l1.5,6.9l0.4,3.7l-0.5,4.2l-1,4.1l0,0l0.1,3.6l-0.2,4.9l-0.3,3.3l-0.1,2.2l-4.5-1.1l1.3-2.1l-4.2-2c-0.1-0.1-0.3,0-0.4,0.1
				c-0.1,0.1,0,0.3,0.1,0.4l3.6,1.7l-1.3,2.2l4.4,1.1l-0.9,0.9l-3.4-0.6l-0.9,0.8c-0.1,0.1-0.1,0.3,0,0.4c0.1,0.1,0.3,0.1,0.4,0
				l0.7-0.6l3.3,0.6c0,0,0,0,0,0l0.9,0.2l-2.1,1.9l-2.2-0.3l-5.6-0.6l3.2,1.9c0.1,0.1,0.3,0,0.4-0.1c0.1-0.1,0-0.3-0.1-0.4l-1.1-0.6
				l3.1,0.3l4.2,0.5l-4.6,2.2c-0.1,0.1-0.2,0.2-0.1,0.4c0,0.1,0.1,0.2,0.3,0.2c0,0,0.1,0,0.1,0l6-2.9l0.1,0.9v0.6
				c-1,1-2.3,2.2-3.2,3c0,0,0,0,0,0l-4,0.4c-0.2,0-0.3,0.2-0.3,0.3c0,0.1,0.1,0.3,0.3,0.3c0,0,0,0,0,0l3.3-0.3
				c-0.1,0.1-0.2,0.2-0.2,0.2l0.2,0.2l-0.1,0.3c0,0,0.1,0,0.1,0c0.1,0,0.2-0.1,0.4-0.2c0.1-0.1,0.3-0.3,0.5-0.4
				c0.4-0.4,0.9-0.9,1.4-1.3c0.6-0.6,1.2-1.1,1.6-1.5l0,1.2l-0.1,1.6l-6.6,3.7c-0.1,0.1-0.2,0.2-0.1,0.4c0.1,0.1,0.1,0.1,0.2,0.1
				c0,0,0.1,0,0.1,0l6.3-3.5l0,0.2l0,0l0.8,5.4v11.9l-0.4,3l-0.6,1.5h-10l-0.4-3.1l-0.8-7.1v-6.6l-0.6-4.6l0.6-2.5v-0.6l4.7,1.1
				c0,0,0,0,0.1,0c0.1,0,0.2-0.1,0.3-0.2c0-0.1-0.1-0.3-0.2-0.3l-4.8-1.2v-1.7l-0.4-1.5v-2.5l4.7,1.6c0,0,0.1,0,0.1,0
				c0.1,0,0.2-0.1,0.3-0.2c0.1-0.1,0-0.3-0.2-0.4l-4.9-1.7l-0.4-2l0,0l6.9-8.9l1.6-2.2l1-2.7l2.5-1.9c0.1-0.1,0.1-0.3,0.1-0.4
				c-0.1-0.1-0.3-0.1-0.4-0.1l-2.7,2l-1,2.8l-1.5,2.1l-6.5,8.5l-0.6-4.5l-0.5-5.8l-0.9-5.4l-0.2,0l0-3.4l-0.5-3.5l-1.1-3.4l0.5-4.1
				l0-4.4l0.7-5.1c0-0.2-0.1-0.3-0.2-0.3c-0.2,0-0.3,0.1-0.3,0.2l-0.7,5.1l0,4.4l-0.5,4.3l1.2,3.5l0.5,3.4l0,3.5l-0.2,0l0.4,5.4
				l-0.2,2.2l-0.5,2.9l0,2.6c0,0,0,0,0,0s0,0,0,0l0,0.2l-0.7,2.5l-7.1-2.5c-0.1-0.1-0.3,0-0.4,0.2c-0.1,0.1,0,0.3,0.2,0.4l6.3,2.2
				l-7.2,2.7l5.7-0.2l-6.4,2.8l7.7,1.7l-1.3,1l-4.4-0.7l-1.6,0.2c-0.2,0-0.3,0.2-0.2,0.3c0,0.2,0.2,0.3,0.3,0.2l1.5-0.2l4.5,0.8
				l2.4-1.8l0,0l0.6,1.2l-0.3,2.4l0,0.2l-3.5-1.3l-3.5,0.4l-2.9-1c-0.1-0.1-0.3,0-0.4,0.2c-0.1,0.1,0,0.3,0.2,0.4l3,1.1l3.5-0.4
				l2.5,1l-0.8,0.4c-0.6,0-4.1-0.1-4.3-0.1c-0.2,0-1.9,0.3-2.4,0.4c-0.2,0-0.3,0.2-0.2,0.3c0,0.1,0.1,0.2,0.3,0.2c0,0,0,0,0.1,0
				c1-0.2,2.2-0.4,2.3-0.4c0.2,0,2.9,0.1,4.3,0.1l0.1,0l1.8-0.9l1.6,5.3l0.5,1.9c0,0,0,0.1,0,0.1c0,0.1,0,0.1,0.1,0.2l0.2,0.8
				l-0.9,3.6l0.2,1.9l0.7,6.4l-4-0.4l-4.3,0.5l-1.9,1l-0.6-3l-2.1-9l-0.6-7.6l-0.9-7.8v-5.2l-1.4-8.3l0.3-7.1l0.8,3.3l1.5,5.1l0,0
				l1.9,3.6c0,0.1,0.1,0.2,0.3,0.2c0,0,0.1,0,0.1,0c0.1-0.1,0.2-0.2,0.1-0.4l-1.8-3.6l-1.4-5l-1.4-6l0.2-6.8l-0.5-4.8l-0.9-3.7
				l0.6-4l1.2-4.3l2-0.2h2.9l3.6,0.5l3.6,0c0.5,0.2,0.8,0.3,0.9,0.3h4.6l0.6-0.4h0.7l0.4,0.4l0.7,0.3h4.2l0,0c0.1,0,0.2-0.1,0.3,0
				c0.1,0.1,0.3,0.1,0.5,0.1c0.1,0,0.3,0,0.5-0.1h0.4l0.7,0L263.3,194.7z M266.2,191.7l0.4,17.2h-0.3l-0.1-0.5l-1.5-6.9l-0.9-6.8
				l-0.4-3H266.2z M267.1,217.8v12.1H265l0.1-0.8l0.2-4.9l0,0l-0.1-3.5l0.7-2.9H267.1z M264.8,238.8l-2.8-0.3l2.4-2.1l0.3,1.1
				L264.8,238.8z M264.9,233.4h2.1v17.6h-0.8l0-0.7l-0.8-5.4l0.1-2.4v-2.6l-0.3-2.5l-0.4-1.5l-0.1-1.4l0-1.2
				C264.8,233.4,264.9,233.4,264.9,233.4z M267.1,254.1l0.6,18.7h-0.6l-0.2-2.6l-0.1,0L266,269l-1.6-1.8h0.7l0.7-1.9l0.4-3.1l0-8.1
				H267.1z M255.4,269.2l0.1-1l0.5-1h7.6l1.9,2.1l0.7,1.1l-0.4,0.1l-1.2-0.6H262l-1.1-0.9l-4.7-0.3L255.4,269.2z M265.1,273.1
				l-1.4-0.4l-1.1,0.1l-0.2,0.1c0,0,0,0-0.1-0.1l-1.2-1l-3.6-0.1l-2.1,0.4v-2.4l0.9-0.4l4.4,0.2l1.1,0.9h2.7l1.3,0.6l0.7-0.2
				l0.1,1.7L265.1,273.1z M261.8,273.3l-5.6,0.2l-0.6-0.7l2-0.4l3.3,0.1L261.8,273.3L261.8,273.3z M251.7,251.5h1.2v2.1h-1.3
				l0.3-1.3L251.7,251.5z M251.7,230.5l0.3,2.4h-2.9l0.7-2.3v0H251.7z M250.3,218.8l0.6,3.5l0.5,5.8l0.3,1.9h-1.8v-2.3l0.5-2.9
				l0.2-2.3L250.3,218.8z M249.1,239.7l0.2-1.6l-0.3-2l0.1-2.7h3l0.4,2.1v2.9l0.4,1.5v2.7l-0.6,2.6l0.6,4.7v1.1h-1.3l-0.5-1.9
				l-1.7-5.6l0.3-2.5L249.1,239.7z M255,268l-0.2,1.4l0,0v3.1v0v0h-4.6l0.5-1.1l-1.2-2.7v-2.5l1,0.6l1.1-2.1l0.3,0l-0.8-7.1
				l-0.2-1.8l0.4-1.8h1.4v2.3l0.8,7.2l0.5,3.6h1.2L255,268z M247.2,264.2l0.1,0l3.8,0.4l-0.7,1.4L247.2,264.2z M249.8,272.1
				C249.8,272.1,249.8,272.1,249.8,272.1L249.8,272.1l-0.4-1.9l-1.8-1.8l-2.9-0.2l-2.9,1.1l0.3-2.3l-0.7-1.5l1.7-0.9l3.1-0.4
				l2.7,1.6v3l1.1,2.6L249.8,272.1z M242.7,273.3l-0.6-0.4l1.5-0.9l3.2-0.3l2.4,0.8l0.1,0.3L242.7,273.3z M241.7,270l3-1.2l2.5,0.2
				l1.5,1.5l0.3,1.4l-2.2-0.8l-3.4,0.3l-1.6,0.9L241.7,270z M244.1,154.6v-2.5l-0.2-2.3l-0.2-2.8l0.8-1c-0.1,0.4-0.1,0.7-0.1,1.1
				c0,1.1,0,2.9,1.2,3.7l0.5,0.3l0-0.5c0-0.1,0-0.2,0-0.3c0-0.2,0-0.5,0-0.7c0.2-0.5,0.7-0.5,0.9-0.5h0c0.1,0,0.1,0,0.2,0
				c0.4,0,0.5,0,0.6,0.3c0.1,0.3,0.2,1,0.1,1.3c-0.1,0.5-0.7,1.2-1.1,1.4c-0.2,0.1-0.5,0.1-0.7,0c-0.1-0.1-0.1-0.2,0-0.4
				c0.1-0.1,0-0.3-0.2-0.4c-0.1-0.1-0.3,0-0.4,0.2c-0.1,0.4-0.1,0.8,0.2,1c0.2,0.2,0.5,0.3,0.9,0.2c0.1,0.4,0.3,0.8,0.5,1.2
				c0.2,0.3,0.3,0.6,0.3,0.8l-2,0.7l-0.1,0.1L244.1,154.6z M245.3,144.8c0.1-0.3,0.4-0.9,0.9-1.3c0.1-0.1,0.2-0.1,0.3-0.2
				c0.4-0.2,0.8-0.4,1-0.7l0.2-0.4l-0.4,0c-0.2,0-0.5,0-0.7,0c0.2-0.2,0.4-0.4,0.3-0.6l-0.1-0.3l-0.3,0.1c-0.2,0.1-0.5,0.1-0.8,0.1
				c0.9-0.5,1.9-0.5,2.9-0.5h0.2c1.9,0,3.9,0,5.5,1c0.5,0.3,1,0.6,1.5,0.8l0.3,0.1c0.1,0,0.1,0.1,0.2,0.1c0.2,0.1,0.4,0.2,0.6,0.3
				c0.3,0.3,0.5,0.6,0.7,1c0.1,0.1,0.1,0.2,0.2,0.3l0.1,0.1c0.3,0.4,0.6,0.9,0.7,1.4c0.1,0.2,0,0.5,0,0.8c-0.1,0.4-0.1,0.8,0.1,1.1
				c0.1,0.2,0.2,0.3,0.3,0.4c0.1,0.2,0.3,0.4,0.3,0.6c0.1,0.3,0.1,0.4,0.1,0.7c0,0.4-0.2,0.8-0.4,1.2c-0.1,0.2-0.3,0.4-0.4,0.7
				c-0.3,0.5-0.7,1-0.7,1.6c0,0.4,0.1,0.7,0.2,1.1c0.1,0.3,0.2,0.6,0.2,0.8c0,0.3-0.2,0.7-0.5,0.8c-0.1,0-0.2,0-0.2,0l0-2l-0.5,2
				c0,0.1,0,0.2,0,0.3c0,0,0,0.1,0,0.2c-0.1,0-0.3,0-0.4,0l-0.3,0l0,0.3c0,0,0,0,0,0.1c0,0-0.1,0-0.1,0c-0.1,0-0.2,0-0.3,0.1
				c-0.3,0.1-0.4,0.2-0.5,0.3l-1-0.5l-2.8-1.2l-3.7-0.9c0-0.4-0.2-0.7-0.4-1c-0.2-0.4-0.4-0.7-0.4-1.1c0.6-0.3,1.2-1.1,1.3-1.7
				c0.1-0.4,0-1.3-0.1-1.6c-0.2-0.7-0.7-0.7-1.1-0.7c0,0-0.1,0-0.1,0c0,0,0,0,0,0c-0.7,0-1.2,0.3-1.4,0.9c0,0.1-0.1,0.3-0.1,0.4
				c-0.5-0.8-0.5-1.9-0.5-2.8C244.9,146.3,245,145.6,245.3,144.8z M269.2,166.4l0,0.7l-0.5-0.5l-0.2-1.1l-0.6-0.9l0.2,0l1,0.6
				L269.2,166.4z M265.6,157l0.7-0.3l0.4,0.4l0,0l-0.7,0.1c-0.2,0-0.2,0.2-0.2,0.3c0,0.2,0.2,0.2,0.3,0.2l1-0.2l0.3-1.2l0.6-0.2
				l1.1,0.2v0.9l0.7,0.8v1.8l-0.2,0.2l-2.1-1.3H267l-0.7,0.2c-0.1,0-0.2,0.2-0.2,0.4c0,0.1,0.2,0.2,0.4,0.2l0.6-0.2h0.4l2,1.3
				l-0.4,4l-0.9-0.5l-0.7,0l-0.2-0.4l-0.7-1.8l-0.8-0.6l-0.2-1.3c0,0,0,0,0,0c0,0,0,0,0,0l-0.4-1.3L265.6,157z M221.1,153.9
				l-0.1,0.9l-3.3,0.9l0,0c0,0,0,0-0.1,0l0.4-1.7l-2-3.9l0.4-0.5l0.1,0.1c0.1,0.1,0.3,0.1,0.4,0c0.1-0.1,0.1-0.3,0-0.4l-0.2-0.2
				l0.8-0.8l0.5-1.1l0.1-0.5l0,0.1c0,0.1,0.2,0.2,0.4,0.2c0.1,0,0.2-0.2,0.2-0.4l-0.6-1.7l0.4-0.2h0.4l0.7,0.7l0.3,0.6c0,0,0,0,0,0
				l0.2,0.5l1,1.1l0.4,1.1c0,0.1,0.1,0.2,0.3,0.2c0,0,0.1,0,0.1,0c0.1-0.1,0.2-0.2,0.2-0.4l-0.4-1.2l-1-1.1l-0.1-0.3l0.6-0.9h0.6
				v0.9l0.4,0.8v0.7l0.9,1.2l-0.4,1.4l-0.3,1.5l-0.4,1.2L221.1,153.9z M218,142.7c0.1-0.3,0.3-1.2,0.5-2l4.7,1.2l-0.4,2l-1.7,0.2
				l-0.1,0.6h-0.4l-0.5,0.9l-0.1-0.2l-0.4-0.5l0.2-1l-0.2-0.1C218.9,143.4,218.2,142.9,218,142.7z M269.1,182l0.9-0.3l2.1-1.6
				l2.9-3.6l-0.6-2.5l-2.6-2.3l-0.8-1.7l-1-2l-0.2-0.5l0-1.3l-0.1-1.5l0.4-4.5l0.4-0.5v-2.2l-0.7-0.8v-1.2l-1.7-0.3l-1.1,0.3
				l-0.1,0.5l-0.4-0.4l-1.4,0.5l-0.4,2l0.4,1.4l0.1,0.8h-1.4l-1.4-1.2l-1.5-0.9l-0.9-0.3l-0.6-0.3l-1.7-0.2l-1.1,0l-0.8-0.4
				c0.1,0,0.1-0.1,0.2-0.1c0.1,0,0.1,0,0.2,0c0.2,0,0.5-0.1,0.6-0.4c0.2,0,0.5-0.1,0.6-0.3c0-0.1,0.1-0.1,0.1-0.2
				c0.2,0,0.3,0,0.4-0.1c0.4-0.2,0.8-0.8,0.8-1.2c0-0.4-0.1-0.7-0.2-1c-0.1-0.3-0.2-0.6-0.2-0.9c0-0.5,0.3-0.9,0.6-1.3
				c0.2-0.2,0.3-0.5,0.5-0.7c0.2-0.4,0.4-0.9,0.4-1.4c0-0.3,0-0.6-0.1-1c-0.1-0.3-0.3-0.5-0.4-0.7c-0.1-0.1-0.2-0.3-0.2-0.4
				c-0.1-0.2-0.1-0.5,0-0.8c0-0.3,0.1-0.7,0-1c-0.2-0.5-0.5-1.1-0.8-1.6l-0.1-0.1c-0.1-0.1-0.1-0.2-0.2-0.3
				c-0.2-0.4-0.5-0.8-0.8-1.1c-0.2-0.2-0.5-0.3-0.7-0.4c-0.1,0-0.1-0.1-0.2-0.1l-0.3-0.2c-0.5-0.3-1-0.5-1.5-0.8
				c-1.7-1.1-3.8-1.1-5.8-1.1h-0.2c-1.3,0-2.8,0-3.9,1.1l-0.5,0.4l0.8,0.1c0.2,0,0.5,0,0.8,0h0c-0.2,0.1-0.4,0.2-0.5,0.3
				c-0.4,0.2-0.7,0.4-0.8,0.5l-0.7,0.7l1-0.3c0.2-0.1,0.4-0.1,0.5-0.2c0.3-0.1,0.6-0.2,0.9-0.3c0,0,0,0,0,0
				c-0.1,0.1-0.3,0.1-0.4,0.2c-0.5,0.3-0.9,0.8-1.1,1.5l-1.7,2.2l0.2,3.1l0.2,2.3v2.7l1.4,1.1l-0.8,1.3h-1l-1.9,0.7l-2.4,0.5
				l-1.6,0.5l-2.4,0.4h-1.7l-1.3,0.2l-2.6,0.1h-4.1h-0.1h-0.9l-0.5-0.2V159l0.1,0l-0.1-0.1v-0.2l-0.1,0l-1.6-2.7l-0.4-1.5l-0.1,0
				l0.1-0.5l0.5-0.8l0.5-1.2l0.3-1.6l0.5-1.7l-1-1.2v-0.7L222,146v-1.3h-0.5l0-0.1l1.7-0.2l0.5-2.7l-0.3-0.3l-5.1-1.3l0,0l-0.2,0
				c0,0,0,0,0,0l-0.2,0l-0.1,0.3c-0.7,2.4-0.6,2.5-0.6,2.6c0,0.1,0.1,0.2,1.7,1.2l-0.1,0.3h-0.7l-1,0.4l0.3,0.9l-0.2,1.5l-0.4,0.9
				l-0.7,0.7l0,0l-1,1.3l2,4.1l-0.5,1.9c-0.4,0.2-0.8,0.4-0.9,0.4c-0.1,0-0.4,0.2-1.9,1.5l-0.1,0.1l1.8,4.7l-1.4,1.6l2.6,0.7
				l3.5,3.3l7.1,3.1l3.4,1.2h1.5l1.2,0.6c0,0,0.1,0,0.1,0c0.1,0,0.2-0.1,0.2-0.1c0.1-0.1,0-0.3-0.1-0.4l-1.3-0.7H231l-3.3-1.2l-7-3
				l-3.5-3.4l-1.8-0.5l1.1-1.2l-1.8-4.6c0.7-0.6,1.4-1.2,1.5-1.3c0.1,0,0.5-0.2,1.7-0.8l3.4-1l0.2,0.6l-2,0.1l-2.1,0.8l-1.3,2.9
				c-0.1,0.1,0,0.3,0.1,0.4c0.1,0.1,0.3,0,0.4-0.1l1.2-2.7l0.8-0.3l-1.2,1.5l-0.8,3.2c0,0.1,0.1,0.3,0.2,0.3c0,0,0,0,0.1,0
				c0.1,0,0.2-0.1,0.3-0.2l0.7-3l1.8-2.1l2.1-0.1l0.8,1.4l-2-0.9c-0.1-0.1-0.3,0-0.4,0.1c-0.1,0.1,0,0.3,0.1,0.4l2.7,1.2l-1.4-0.2
				l-2.5,0.2c-0.2,0-0.3,0.1-0.3,0.3c0,0.2,0.2,0.3,0.3,0.3l2.4-0.2l1.7,0.2v0.1l-3,0.5l-1.8,1.7c-0.1,0.1-0.1,0.3,0,0.4
				c0.1,0.1,0.1,0.1,0.2,0.1c0.1,0,0.1,0,0.2-0.1l1.7-1.6l2.8-0.5l0.2,0.1l-1.2,0.5l-1.6,1.1c-0.1,0.1-0.2,0.3-0.1,0.4
				c0.1,0.1,0.1,0.1,0.2,0.1c0.1,0,0.1,0,0.2,0l1.6-1.1l1.7-0.7h0.1l-1.3,0.9l-0.7,2.1c0,0.1,0,0.3,0.2,0.4c0,0,0.1,0,0.1,0
				c0.1,0,0.2-0.1,0.3-0.2l0.6-2l1.7-1.3h4l0.9,0l-0.8,1l0.3,1.4c0,0.1,0.1,0.2,0.3,0.2c0,0,0,0,0.1,0c0.2,0,0.3-0.2,0.2-0.3
				l-0.2-1.1l0.9-1.2l0.7,0l0.2,3.1l1.5,2.6l1.6,1.7c0.1,0.1,0.1,0.1,0.2,0.1c0.1,0,0.1,0,0.2-0.1c0.1-0.1,0.1-0.3,0-0.4l-1.5-1.7
				l-1.4-2.5l-0.2-3l1-0.2h1.7l2.5-0.4l1.7-0.5l1.1-0.2l-3.6,8l-1.9,5.7l-0.6,1.1c0,0.1,0,0.2,0,0.3c0,0.1-0.1,0.1,0,0.2l1,4v5.6
				l0.9,3.8v3.1l-1.2,4.5l-0.7,4.2l0.9,3.7l0.5,4.8l-0.2,6.8l0.2,0.7l-0.3,9.1l0,0l1.4,8.3v5.2l0.9,7.8l0.6,7.6l0,0l0.3,1.3v98.2
				c0,0.2,0.1,0.3,0.3,0.3c0.2,0,0.3-0.1,0.3-0.3v-95.8l1.2,5.3l0.7,3.7l0.2-0.1l0.6,1.3l-0.3,2.6c0,0,0,0,0,0l-0.1,0.5l0.1,0
				l0.2,2.8l1.2,0.8l7.5-0.4l0-0.2l0,0h5.2l0.7,0.9l6-0.2l0.8-0.4l0.9-0.1l1.4,0.4l1-0.3h2.2l-0.7-19.8h-1.4l0-2.1h1.4v-18.7h-2.7
				c-0.1,0-0.1,0-0.2,0.1l0-0.6l0.2-1.9h2.7v-13.2H266l0.2-0.7l0.5-4.3l0,0l-0.3-2.8h0.8l-0.5-18.3h-3.3l-0.1-0.6l0-1.2h3.4v-7.4
				l1.3,0.6l0.6-0.2l2.3,113.9l1,56.7c0,0.2,0.1,0.3,0.3,0.3c0,0,0,0,0,0c0.2,0,0.3-0.1,0.3-0.3l-1-56.7L269.1,182z"/>
			<defs>
				<filter id="Adobe_OpacityMaskFilter_5_" filterUnits="userSpaceOnUse" x="218" y="133" width="9" height="9">
					<feColorMatrix  type="matrix" values="1 0 0 0 0  0 1 0 0 0  0 0 1 0 0  0 0 0 1 0"/>
				</filter>
			</defs>
			<mask maskUnits="userSpaceOnUse" x="218" y="133" width="9" height="9" id="mask-2_6_">
				<g class="st12">
					<polygon id="path-1_6_" class="st2" points="0,353 296,353 296,0 0,0 					"/>
				</g>
			</mask>
			<path id="Fill-27" class="st13" d="M222.3,134.1c-0.7,0.5-1.2,1.1-1.6,1.7C221,135.1,221.6,134.5,222.3,134.1z M226.9,135.7
				C226.9,135.7,226.9,135.7,226.9,135.7C227,135.8,226.9,136.1,226.9,135.7z M218,140.3l0.2,0c0,0,0,0,0,0c0.2-0.4,0.6-0.7,0.7-1.1
				c0.2-0.7,0.1-1.4,0.2-2.1c0.1-1,0.8-2.5,1.8-3c-0.5,0.7-0.8,1.6-1,2.4c0,0,0,0.1,0,0.2v0.4c0,0,0-0.1,0-0.1c0,0,0,0.1,0,0.1
				c0.1-0.3,0.2-0.5,0.3-0.7c0,0,0,0,0,0c0,0,0,0,0,0.1v0.5c0-0.1,0-0.1,0-0.2c0,0.1,0,0.2,0,0.2c0.4-0.7,0.9-1.4,1.5-1.9
				c-0.1,0.1-0.1,0.2-0.2,0.3c-0.2,0.5-0.2,1.1-0.2,1.7c0,0,0,0,0,0c0.2-0.9,0.5-1.9,1.3-2.6c0,0,0.1-0.1,0.1-0.1
				c0.2-0.2,0.5-0.3,0.7-0.4c-0.2,0.3-0.4,0.6-0.6,0.9c-0.3,0.5-0.3,1.1-0.3,1.6c0,0,0,0.1,0,0.1c0,0.1,0,0.3,0,0.4
				c0-0.1,0-0.1,0-0.2c0,0.1,0,0.1,0,0.2c0.1-0.5,0.3-1.1,0.6-1.6c-0.1,0.4-0.2,0.8-0.3,1.2c0,0.1,0,0.1,0,0.2v0.3
				c0.3-0.7,0.7-1.4,1.3-2c0.4-0.4,1-0.7,1.5-0.9c-0.1,0.1-0.2,0.1-0.3,0.2c-0.5,0.3-0.8,0.7-1.1,1.1c-0.6,0.9-0.9,1.9-1.3,2.8
				c0,0.1-0.1,0.2-0.1,0.3c0,0.1,0,0.2,0,0.3v0.3c0-0.1,0.1-0.2,0.1-0.3c0.3-0.7,1-1.3,1.5-1.9c0.6-0.6,1.1-1.3,1.7-1.9
				c-0.2,0.4-0.5,0.7-0.7,1.1c-0.5,0.8-0.9,1.6-1.4,2.4c0,0.1,0,0.2,0,0.2v0.3c1-1.1,2.1-2.2,2.8-3.6c0,0,0,0,0,0
				c0,0.1-0.1,0.2-0.1,0.3c-0.1,0.4-0.3,0.9-0.5,1.3c-0.1,0.3-0.3,0.6-0.5,0.9c-0.3,0.5-0.5,1-0.8,1.5c-0.2,0.3-0.4,0.6-0.5,0.9
				c-0.2,0.5-0.6,0.8-1,1.2l0.3,0.3l0,0c0,0,0,0,0,0c0.3-0.3,0.5-0.6,0.7-0.9c0.2-0.5,0.5-0.9,0.7-1.3c0.2-0.5,0.5-0.8,0.7-1.3
				c0.2-0.5,0.4-0.9,0.6-1.4c0.2-0.6,0.4-1.2,0.3-1.8c0-0.3-0.2,0.2-0.3,0.2c-0.2,0.4-0.5,0.8-0.8,1.1c-0.3,0.4-0.7,0.8-1,1.2
				c0.3-0.5,0.5-0.9,0.8-1.3c0.4-0.5,0.7-1,0.7-1.6c0,0,0,0,0,0c0,0,0-0.1,0-0.1c0,0,0-0.1,0-0.1c0,0,0,0,0-0.1c0,0,0-0.1,0-0.1
				c0,0,0,0,0,0c0-0.1,0-0.1,0-0.2c-0.6,0.7-1.2,1.4-1.9,2.1c-0.3,0.3-0.7,0.7-1,1.1c0.2-0.4,0.4-0.8,0.6-1.2
				c0.3-0.5,0.6-0.8,1.1-1.2c0.4-0.3,0.8-0.5,1-0.9c0,0,0-0.4,0-0.5v0c-0.7,0-1.5,0.4-2,0.8c-0.4,0.3-0.8,0.8-1,1.3
				c0.1-0.3,0.3-0.5,0.4-0.8c0.5-0.6,1.3-1,1.9-1.4c0,0,0-0.3,0-0.4v-0.1c-0.7,0-1.2,0.3-1.7,0.7c0,0,0-0.1,0-0.1v-0.3
				c-0.1,0-0.2,0-0.3,0.1v-0.1c-0.1,0-0.2,0.1-0.3,0.1c0-0.1,0-0.2,0-0.3V133c-0.5,0.1-1,0.2-1.4,0.4c-2,0-2.8,2.6-2.8,4.1
				c0,0.4,0,0.8-0.2,1.2c-0.1,0.4-0.4,0.7-0.7,1.1C218.1,139.9,218,140.1,218,140.3L218,140.3z"/>
			<defs>
				<filter id="Adobe_OpacityMaskFilter_6_" filterUnits="userSpaceOnUse" x="162" y="243" width="8" height="10">
					<feColorMatrix  type="matrix" values="1 0 0 0 0  0 1 0 0 0  0 0 1 0 0  0 0 0 1 0"/>
				</filter>
			</defs>
			<mask maskUnits="userSpaceOnUse" x="162" y="243" width="8" height="10" id="mask-2_7_">
				<g class="st14">
					<polygon id="path-1_7_" class="st2" points="0,353 296,353 296,0 0,0 					"/>
				</g>
			</mask>
			<path id="Fill-28" class="st15" d="M165.3,243c-1.8,0.7-3.1,2.3-3.3,4.3l1.4-0.9c0.3-0.2,0.6-0.1,0.8,0.2
				c0.2,0.3,0.1,0.6-0.2,0.8l-1.6,1l1.6,1c0.3,0.2,0.3,0.5,0.2,0.8c-0.1,0.2-0.3,0.3-0.5,0.3c-0.1,0-0.2,0-0.3-0.1l-1.2-0.8
				c0.6,1.8,2.1,3.1,4,3.4c2.2-0.6,3.8-2.6,3.8-4.9C170,245.4,167.9,243.2,165.3,243"/>
			<defs>
				<filter id="Adobe_OpacityMaskFilter_7_" filterUnits="userSpaceOnUse" x="118" y="68" width="3" height="10">
					<feColorMatrix  type="matrix" values="1 0 0 0 0  0 1 0 0 0  0 0 1 0 0  0 0 0 1 0"/>
				</filter>
			</defs>
			<mask maskUnits="userSpaceOnUse" x="118" y="68" width="3" height="10" id="mask-2_8_">
				<g class="st16">
					<polygon id="path-1_8_" class="st2" points="0,353 296,353 296,0 0,0 					"/>
				</g>
			</mask>
			<polygon id="Fill-29" class="st17" points="121,78 120.5,72 118,68 118.4,72.2 120.1,77.7 			"/>
			<defs>
				<filter id="Adobe_OpacityMaskFilter_8_" filterUnits="userSpaceOnUse" x="126" y="252" width="5" height="5">
					<feColorMatrix  type="matrix" values="1 0 0 0 0  0 1 0 0 0  0 0 1 0 0  0 0 0 1 0"/>
				</filter>
			</defs>
			<mask maskUnits="userSpaceOnUse" x="126" y="252" width="5" height="5" id="mask-2_9_">
				<g class="st18">
					<polygon id="path-1_9_" class="st2" points="0,353 296,353 296,0 0,0 					"/>
				</g>
			</mask>
			<polygon id="Fill-30" class="st19" points="130.4,257 131,253 126,252 			"/>
			<defs>
				<filter id="Adobe_OpacityMaskFilter_9_" filterUnits="userSpaceOnUse" x="121" y="74" width="3" height="6">
					<feColorMatrix  type="matrix" values="1 0 0 0 0  0 1 0 0 0  0 0 1 0 0  0 0 0 1 0"/>
				</filter>
			</defs>
			<mask maskUnits="userSpaceOnUse" x="121" y="74" width="3" height="6" id="mask-2_10_">
				<g class="st20">
					<polygon id="path-1_10_" class="st2" points="0,353 296,353 296,0 0,0 					"/>
				</g>
			</mask>
			<polygon id="Fill-31" class="st21" points="124,80 123.7,77.2 122.8,76.6 122.8,76.6 122.7,76.6 121,74 121.5,79.2 			"/>
			<defs>
				<filter id="Adobe_OpacityMaskFilter_10_" filterUnits="userSpaceOnUse" x="116" y="67" width="2" height="3">
					<feColorMatrix  type="matrix" values="1 0 0 0 0  0 1 0 0 0  0 0 1 0 0  0 0 0 1 0"/>
				</filter>
			</defs>
			<mask maskUnits="userSpaceOnUse" x="116" y="67" width="2" height="3" id="mask-2_11_">
				<g class="st22">
					<polygon id="path-1_11_" class="st2" points="0,353 296,353 296,0 0,0 					"/>
				</g>
			</mask>
			<polygon id="Fill-32" class="st23" points="116,67 118,70 117.7,68.2 			"/>
			<defs>
				<filter id="Adobe_OpacityMaskFilter_11_" filterUnits="userSpaceOnUse" x="154" y="195" width="4" height="8">
					<feColorMatrix  type="matrix" values="1 0 0 0 0  0 1 0 0 0  0 0 1 0 0  0 0 0 1 0"/>
				</filter>
			</defs>
			<mask maskUnits="userSpaceOnUse" x="154" y="195" width="4" height="8" id="mask-2_12_">
				<g class="st24">
					<polygon id="path-1_12_" class="st2" points="0,353 296,353 296,0 0,0 					"/>
				</g>
			</mask>
			<polygon id="Fill-33" class="st25" points="154,196.6 155.1,202 158,203 156.1,195 			"/>
			<defs>
				<filter id="Adobe_OpacityMaskFilter_12_" filterUnits="userSpaceOnUse" x="161" y="189" width="6" height="16">
					<feColorMatrix  type="matrix" values="1 0 0 0 0  0 1 0 0 0  0 0 1 0 0  0 0 0 1 0"/>
				</filter>
			</defs>
			<mask maskUnits="userSpaceOnUse" x="161" y="189" width="6" height="16" id="mask-2_13_">
				<g class="st26">
					<polygon id="path-1_13_" class="st2" points="0,353 296,353 296,0 0,0 					"/>
				</g>
			</mask>
			<polygon id="Fill-34" class="st27" points="163.4,189 161,190.7 164.4,204.2 167,205 			"/>
			<defs>
				<filter id="Adobe_OpacityMaskFilter_13_" filterUnits="userSpaceOnUse" x="157" y="191" width="6" height="13">
					<feColorMatrix  type="matrix" values="1 0 0 0 0  0 1 0 0 0  0 0 1 0 0  0 0 0 1 0"/>
				</filter>
			</defs>
			<mask maskUnits="userSpaceOnUse" x="157" y="191" width="6" height="13" id="mask-2_14_">
				<g class="st28">
					<polygon id="path-1_14_" class="st2" points="0,353 296,353 296,0 0,0 					"/>
				</g>
			</mask>
			<polygon id="Fill-35" class="st29" points="157,193.2 159.2,202.7 163,204 159.9,191 			"/>
			<defs>
				<filter id="Adobe_OpacityMaskFilter_14_" filterUnits="userSpaceOnUse" x="43" y="127" width="8" height="15">
					<feColorMatrix  type="matrix" values="1 0 0 0 0  0 1 0 0 0  0 0 1 0 0  0 0 0 1 0"/>
				</filter>
			</defs>
			<mask maskUnits="userSpaceOnUse" x="43" y="127" width="8" height="15" id="mask-2_15_">
				<g class="st30">
					<polygon id="path-1_15_" class="st2" points="0,353 296,353 296,0 0,0 					"/>
				</g>
			</mask>
			<polygon id="Fill-36" class="st31" points="51,134.2 47.4,127 43,142 			"/>
			<defs>
				<filter id="Adobe_OpacityMaskFilter_15_" filterUnits="userSpaceOnUse" x="124" y="78" width="3" height="3">
					<feColorMatrix  type="matrix" values="1 0 0 0 0  0 1 0 0 0  0 0 1 0 0  0 0 0 1 0"/>
				</filter>
			</defs>
			<mask maskUnits="userSpaceOnUse" x="124" y="78" width="3" height="3" id="mask-2_16_">
				<g class="st32">
					<polygon id="path-1_16_" class="st2" points="0,353 296,353 296,0 0,0 					"/>
				</g>
			</mask>
			<polygon id="Fill-37" class="st33" points="127,81 126.8,79.4 124,78 124.3,80.3 			"/>
			<defs>
				<filter id="Adobe_OpacityMaskFilter_16_" filterUnits="userSpaceOnUse" x="123" y="128" width="7" height="7">
					<feColorMatrix  type="matrix" values="1 0 0 0 0  0 1 0 0 0  0 0 1 0 0  0 0 0 1 0"/>
				</filter>
			</defs>
			<mask maskUnits="userSpaceOnUse" x="123" y="128" width="7" height="7" id="mask-2_17_">
				<g class="st34">
					<polygon id="path-1_17_" class="st2" points="0,353 296,353 296,0 0,0 					"/>
				</g>
			</mask>
			<path id="Fill-38" class="st35" d="M127.4,131.5c0,0.5-0.4,0.9-0.9,0.9s-0.9-0.4-0.9-0.9c0-0.5,0.4-0.9,0.9-0.9
				S127.4,131,127.4,131.5 M123,131.5c0,1.9,1.6,3.5,3.5,3.5c1.9,0,3.5-1.6,3.5-3.5c0-1.9-1.6-3.5-3.5-3.5
				C124.6,128,123,129.6,123,131.5"/>
			<defs>
				<filter id="Adobe_OpacityMaskFilter_17_" filterUnits="userSpaceOnUse" x="50" y="47" width="12" height="6">
					<feColorMatrix  type="matrix" values="1 0 0 0 0  0 1 0 0 0  0 0 1 0 0  0 0 0 1 0"/>
				</filter>
			</defs>
			<mask maskUnits="userSpaceOnUse" x="50" y="47" width="12" height="6" id="mask-2_18_">
				<g class="st36">
					<polygon id="path-1_18_" class="st2" points="0,353 296,353 296,0 0,0 					"/>
				</g>
			</mask>
			<path id="Fill-39" class="st37" d="M54,50.8c-0.2,0.3-0.5,0.5-0.8,0.5c-0.2,0-0.3,0-0.5-0.1c-0.2-0.1-0.4-0.3-0.4-0.6
				c-0.1-0.2,0-0.5,0.1-0.7l0.5-0.8c-1,0.2-1.9,0.4-2.8,0.5c1.2,1.6,3,2.8,5.1,3.4c3.3-0.6,6-2.9,6.9-6c-2.4,0.6-4.6,1.1-6.6,1.5
				L54,50.8z"/>
			<defs>
				<filter id="Adobe_OpacityMaskFilter_18_" filterUnits="userSpaceOnUse" x="48" y="37" width="13" height="12">
					<feColorMatrix  type="matrix" values="1 0 0 0 0  0 1 0 0 0  0 0 1 0 0  0 0 0 1 0"/>
				</filter>
			</defs>
			<mask maskUnits="userSpaceOnUse" x="48" y="37" width="13" height="12" id="mask-2_19_">
				<g class="st38">
					<polygon id="path-1_19_" class="st2" points="0,353 296,353 296,0 0,0 					"/>
				</g>
			</mask>
			<path id="Fill-40" class="st39" d="M54.1,37c-3.6,1.1-6.1,4.6-6.1,8.5c0,1.2,0.2,2.4,0.7,3.5c1.4-0.3,3-0.6,4.7-1l1.7-3
				c0.2-0.3,0.4-0.5,0.8-0.5c0.2,0,0.3,0,0.4,0.1c0.2,0.1,0.3,0.3,0.4,0.6c0.1,0.2,0,0.5-0.1,0.7l-0.8,1.5c1.6-0.4,3.3-0.8,5.2-1.3
				c0-0.2,0-0.4,0-0.6C61,41.3,58,37.7,54.1,37"/>
			<defs>
				<filter id="Adobe_OpacityMaskFilter_19_" filterUnits="userSpaceOnUse" x="67" y="41" width="7" height="5">
					<feColorMatrix  type="matrix" values="1 0 0 0 0  0 1 0 0 0  0 0 1 0 0  0 0 0 1 0"/>
				</filter>
			</defs>
			<mask maskUnits="userSpaceOnUse" x="67" y="41" width="7" height="5" id="mask-2_20_">
				<g class="st40">
					<polygon id="path-1_20_" class="st2" points="0,353 296,353 296,0 0,0 					"/>
				</g>
			</mask>
			<path id="Fill-41" class="st41" d="M73.6,41.8C73,41.3,71.8,41,70.1,41c-1.2,0-2.4,0.1-3.1,0.3c0.6,1.5,1,3.1,1.1,4.7
				c5.5-1.7,6-3,5.9-3.4C74,42.3,73.8,42,73.6,41.8"/>
			<defs>
				<filter id="Adobe_OpacityMaskFilter_20_" filterUnits="userSpaceOnUse" x="77" y="155" width="5" height="3">
					<feColorMatrix  type="matrix" values="1 0 0 0 0  0 1 0 0 0  0 0 1 0 0  0 0 0 1 0"/>
				</filter>
			</defs>
			<mask maskUnits="userSpaceOnUse" x="77" y="155" width="5" height="3" id="mask-2_21_">
				<g class="st42">
					<polygon id="path-1_21_" class="st2" points="0,353 296,353 296,0 0,0 					"/>
				</g>
			</mask>
			<path id="Fill-42" class="st43" d="M82,156.3l-5-1.3c0.1,1.7,1.3,3,2.7,3C80.7,158,81.5,157.3,82,156.3"/>
			<defs>
				<filter id="Adobe_OpacityMaskFilter_21_" filterUnits="userSpaceOnUse" x="77" y="152" width="5" height="3">
					<feColorMatrix  type="matrix" values="1 0 0 0 0  0 1 0 0 0  0 0 1 0 0  0 0 0 1 0"/>
				</filter>
			</defs>
			<mask maskUnits="userSpaceOnUse" x="77" y="152" width="5" height="3" id="mask-2_22_">
				<g class="st44">
					<polygon id="path-1_22_" class="st2" points="0,353 296,353 296,0 0,0 					"/>
				</g>
			</mask>
			<path id="Fill-43" class="st45" d="M79.4,152c-1.1,0-2,0.7-2.4,1.8l5,1.2C82,153.3,80.8,152,79.4,152"/>
			<defs>
				<filter id="Adobe_OpacityMaskFilter_22_" filterUnits="userSpaceOnUse" x="127" y="79" width="3" height="3">
					<feColorMatrix  type="matrix" values="1 0 0 0 0  0 1 0 0 0  0 0 1 0 0  0 0 0 1 0"/>
				</filter>
			</defs>
			<mask maskUnits="userSpaceOnUse" x="127" y="79" width="3" height="3" id="mask-2_23_">
				<g class="st46">
					<polygon id="path-1_23_" class="st2" points="0,353 296,353 296,0 0,0 					"/>
				</g>
			</mask>
			<polygon id="Fill-44" class="st47" points="130,82 129.9,81 127,79 127.2,81 			"/>
			<defs>
				<filter id="Adobe_OpacityMaskFilter_23_" filterUnits="userSpaceOnUse" x="41" y="176" width="4" height="7">
					<feColorMatrix  type="matrix" values="1 0 0 0 0  0 1 0 0 0  0 0 1 0 0  0 0 0 1 0"/>
				</filter>
			</defs>
			<mask maskUnits="userSpaceOnUse" x="41" y="176" width="4" height="7" id="mask-2_24_">
				<g class="st48">
					<polygon id="path-1_24_" class="st2" points="0,353 296,353 296,0 0,0 					"/>
				</g>
			</mask>
			<polygon id="Fill-45" class="st49" points="43.5,176 41,181.2 42.4,183 45,177.7 			"/>
			<defs>
				<filter id="Adobe_OpacityMaskFilter_24_" filterUnits="userSpaceOnUse" x="130" y="82" width="2" height="1">
					<feColorMatrix  type="matrix" values="1 0 0 0 0  0 1 0 0 0  0 0 1 0 0  0 0 0 1 0"/>
				</filter>
			</defs>
			<mask maskUnits="userSpaceOnUse" x="130" y="82" width="2" height="1" id="mask-2_25_">
				<g class="st50">
					<polygon id="path-1_25_" class="st2" points="0,353 296,353 296,0 0,0 					"/>
				</g>
			</mask>
			<polygon id="Fill-46" class="st51" points="132,83 130,82 130.1,82.5 			"/>
			<defs>
				<filter id="Adobe_OpacityMaskFilter_25_" filterUnits="userSpaceOnUse" x="58" y="220" width="2" height="3">
					<feColorMatrix  type="matrix" values="1 0 0 0 0  0 1 0 0 0  0 0 1 0 0  0 0 0 1 0"/>
				</filter>
			</defs>
			<mask maskUnits="userSpaceOnUse" x="58" y="220" width="2" height="3" id="mask-2_26_">
				<g class="st52">
					<polygon id="path-1_26_" class="st2" points="0,353 296,353 296,0 0,0 					"/>
				</g>
			</mask>
			<path id="Fill-47" class="st53" d="M60,220c-0.1,0-0.2,0-0.3,0l-0.1,0c-0.5,0-1,0.2-1.3,0.6c-0.2,0.3-0.4,0.7-0.4,1.1
				c0,0.4,0.1,0.8,0.4,1c0.2,0.2,0.4,0.3,0.6,0.3c0.2,0,0.4-0.1,0.6-0.3c0.2-0.2,0.2-0.5,0-0.7c-0.2-0.2-0.3-0.5-0.3-0.8
				c0-0.3,0.1-0.6,0.3-0.8C59.7,220.2,59.8,220.1,60,220"/>
			<defs>
				<filter id="Adobe_OpacityMaskFilter_26_" filterUnits="userSpaceOnUse" x="43" y="178" width="4" height="9">
					<feColorMatrix  type="matrix" values="1 0 0 0 0  0 1 0 0 0  0 0 1 0 0  0 0 0 1 0"/>
				</filter>
			</defs>
			<mask maskUnits="userSpaceOnUse" x="43" y="178" width="4" height="9" id="mask-2_27_">
				<g class="st54">
					<polygon id="path-1_27_" class="st2" points="0,353 296,353 296,0 0,0 					"/>
				</g>
			</mask>
			<polygon id="Fill-48" class="st55" points="43,184.2 44.9,187 47,179.6 45.8,178 			"/>
			<defs>
				<filter id="Adobe_OpacityMaskFilter_27_" filterUnits="userSpaceOnUse" x="41" y="44" width="6" height="5">
					<feColorMatrix  type="matrix" values="1 0 0 0 0  0 1 0 0 0  0 0 1 0 0  0 0 0 1 0"/>
				</filter>
			</defs>
			<mask maskUnits="userSpaceOnUse" x="41" y="44" width="6" height="5" id="mask-2_28_">
				<g class="st56">
					<polygon id="path-1_28_" class="st2" points="0,353 296,353 296,0 0,0 					"/>
				</g>
			</mask>
			<path id="Fill-49" class="st57" d="M46.3,44c-3.4,0.9-4.6,2.1-5.1,3c-0.3,0.5-0.3,1-0.2,1.1c0.2,0.4,0.5,0.9,2.3,0.9
				c0.9,0,2.2-0.1,3.7-0.4c-0.4-1.3-0.7-2.7-0.7-4.2C46.3,44.3,46.3,44.2,46.3,44"/>
			<defs>
				<filter id="Adobe_OpacityMaskFilter_28_" filterUnits="userSpaceOnUse" x="243" y="96" width="13" height="9">
					<feColorMatrix  type="matrix" values="1 0 0 0 0  0 1 0 0 0  0 0 1 0 0  0 0 0 1 0"/>
				</filter>
			</defs>
			<mask maskUnits="userSpaceOnUse" x="243" y="96" width="13" height="9" id="mask-2_29_">
				<g class="st58">
					<polygon id="path-1_29_" class="st2" points="0,353 296,353 296,0 0,0 					"/>
				</g>
			</mask>
			<path id="Fill-50" class="st59" d="M254.6,96l-11.6,7.5c0,0.5,0.1,1,0.2,1.5l12.8-8.2C255.6,96.5,255.1,96.2,254.6,96"/>
			<defs>
				<filter id="Adobe_OpacityMaskFilter_29_" filterUnits="userSpaceOnUse" x="243" y="98" width="14" height="10">
					<feColorMatrix  type="matrix" values="1 0 0 0 0  0 1 0 0 0  0 0 1 0 0  0 0 0 1 0"/>
				</filter>
			</defs>
			<mask maskUnits="userSpaceOnUse" x="243" y="98" width="14" height="10" id="mask-2_30_">
				<g class="st60">
					<polygon id="path-1_30_" class="st2" points="0,353 296,353 296,0 0,0 					"/>
				</g>
			</mask>
			<path id="Fill-51" class="st61" d="M256,98l-13,8.7c0.2,0.4,0.3,0.9,0.6,1.3l13.4-9C256.7,98.7,256.4,98.3,256,98"/>
			<defs>
				<filter id="Adobe_OpacityMaskFilter_30_" filterUnits="userSpaceOnUse" x="250" y="46" width="7" height="8">
					<feColorMatrix  type="matrix" values="1 0 0 0 0  0 1 0 0 0  0 0 1 0 0  0 0 0 1 0"/>
				</filter>
			</defs>
			<mask maskUnits="userSpaceOnUse" x="250" y="46" width="7" height="8" id="mask-2_31_">
				<g class="st62">
					<polygon id="path-1_31_" class="st2" points="0,353 296,353 296,0 0,0 					"/>
				</g>
			</mask>
			<path id="Fill-52" class="st63" d="M254.9,51.4l-0.3-1.2c-0.1-0.2,0.1-0.4,0.3-0.5c0,0,0.1,0,0.1,0c0.2,0,0.3,0.1,0.4,0.3
				l0.3,1.2c0,0.1,0,0.2,0,0.3c0,0.1-0.1,0.2-0.2,0.2c0,0-0.1,0-0.1,0C255.1,51.6,254.9,51.5,254.9,51.4 M255.2,52.6
				c-0.1-0.2,0.1-0.4,0.3-0.5c0,0,0.1,0,0.1,0c0.2,0,0.3,0.1,0.4,0.3c0.1,0.2,0.2,0.6,0.3,1L257,46l-2.4,1.7l0.2,0.8
				c0.1,0.2-0.1,0.4-0.3,0.5c0,0-0.1,0-0.1,0c-0.2,0-0.3-0.1-0.4-0.3l-0.2-0.8l-3.9-0.3l5.6,6.4C255.5,53.4,255.3,52.8,255.2,52.6"
				/>
			<defs>
				<filter id="Adobe_OpacityMaskFilter_31_" filterUnits="userSpaceOnUse" x="251" y="108" width="7" height="5">
					<feColorMatrix  type="matrix" values="1 0 0 0 0  0 1 0 0 0  0 0 1 0 0  0 0 0 1 0"/>
				</filter>
			</defs>
			<mask maskUnits="userSpaceOnUse" x="251" y="108" width="7" height="5" id="mask-2_32_">
				<g class="st64">
					<polygon id="path-1_32_" class="st2" points="0,353 296,353 296,0 0,0 					"/>
				</g>
			</mask>
			<path id="Fill-53" class="st65" d="M258,108l-7,5C254.1,113,256.8,111,258,108"/>
			<defs>
				<filter id="Adobe_OpacityMaskFilter_32_" filterUnits="userSpaceOnUse" x="252" y="37" width="6" height="9">
					<feColorMatrix  type="matrix" values="1 0 0 0 0  0 1 0 0 0  0 0 1 0 0  0 0 0 1 0"/>
				</filter>
			</defs>
			<mask maskUnits="userSpaceOnUse" x="252" y="37" width="6" height="9" id="mask-2_33_">
				<g class="st66">
					<polygon id="path-1_33_" class="st2" points="0,353 296,353 296,0 0,0 					"/>
				</g>
			</mask>
			<polygon id="Fill-54" class="st67" points="258,44 252,37 254.8,46 			"/>
			<defs>
				<filter id="Adobe_OpacityMaskFilter_33_" filterUnits="userSpaceOnUse" x="243" y="96" width="10" height="7">
					<feColorMatrix  type="matrix" values="1 0 0 0 0  0 1 0 0 0  0 0 1 0 0  0 0 0 1 0"/>
				</filter>
			</defs>
			<mask maskUnits="userSpaceOnUse" x="243" y="96" width="10" height="7" id="mask-2_34_">
				<g class="st68">
					<polygon id="path-1_34_" class="st2" points="0,353 296,353 296,0 0,0 					"/>
				</g>
			</mask>
			<path id="Fill-55" class="st69" d="M251.1,96l-7.6,5.1c-0.2,0.6-0.4,1.2-0.4,1.9l10-6.7C252.4,96.1,251.7,96,251.1,96"/>
			<defs>
				<filter id="Adobe_OpacityMaskFilter_34_" filterUnits="userSpaceOnUse" x="244" y="100" width="14" height="10">
					<feColorMatrix  type="matrix" values="1 0 0 0 0  0 1 0 0 0  0 0 1 0 0  0 0 0 1 0"/>
				</filter>
			</defs>
			<mask maskUnits="userSpaceOnUse" x="244" y="100" width="14" height="10" id="mask-2_35_">
				<g class="st70">
					<polygon id="path-1_35_" class="st2" points="0,353 296,353 296,0 0,0 					"/>
				</g>
			</mask>
			<path id="Fill-56" class="st71" d="M244,108.9c0.3,0.4,0.6,0.7,0.9,1.1l13.1-8.8c-0.2-0.4-0.4-0.8-0.7-1.2L244,108.9z"/>
			<defs>
				<filter id="Adobe_OpacityMaskFilter_35_" filterUnits="userSpaceOnUse" x="248" y="104" width="11" height="8">
					<feColorMatrix  type="matrix" values="1 0 0 0 0  0 1 0 0 0  0 0 1 0 0  0 0 0 1 0"/>
				</filter>
			</defs>
			<mask maskUnits="userSpaceOnUse" x="248" y="104" width="11" height="8" id="mask-2_36_">
				<g class="st72">
					<polygon id="path-1_36_" class="st2" points="0,353 296,353 296,0 0,0 					"/>
				</g>
			</mask>
			<path id="Fill-57" class="st73" d="M249.8,112l9-6.1c0.1-0.6,0.2-1.3,0.2-1.9l-11,7.5C248.6,111.7,249.2,111.9,249.8,112"/>
			<defs>
				<filter id="Adobe_OpacityMaskFilter_36_" filterUnits="userSpaceOnUse" x="0" y="0" width="296" height="294">
					<feColorMatrix  type="matrix" values="1 0 0 0 0  0 1 0 0 0  0 0 1 0 0  0 0 0 1 0"/>
				</filter>
			</defs>
			<mask maskUnits="userSpaceOnUse" x="0" y="0" width="296" height="294" id="mask-2_37_">
				<g class="st74">
					<polygon id="path-1_37_" class="st2" points="0,353 296,353 296,0 0,0 					"/>
				</g>
			</mask>
			<path id="Fill-58" class="st75" d="M250.9,114.1c-5.2,0-9.4-4.2-9.4-9.4c0-5.2,4.2-9.4,9.4-9.4c5.2,0,9.4,4.2,9.4,9.4
				C260.3,109.9,256,114.1,250.9,114.1z M247.3,47.1l2.9-13.6l0.1-0.3l0.2,0.3l8.5,11l0,0.1l0,0.1l-1.5,13.1l0,0.3l-0.2-0.3
				l-9.9-10.5L247.3,47.1L247.3,47.1z M199.3,83.6l-9.4-3.9l-1.8-9.6l7.2-8.3l9.5,6.6l-9.8-2.1l-3.3,5l1.1,5.3l5.9,2.4l7.5-3.7
				L199.3,83.6z M187.5,34.2L187.5,34.2L187.5,34.2L187.5,34.2L187.5,34.2c-0.3-0.6,0-1.2,0.5-1.4c0.1-0.1,0.3-0.1,0.4-0.1
				c0.4,0,0.8,0.2,0.9,0.6c0.2,0.5,0,1.1-0.5,1.4c-0.1,0.1-0.3,0.1-0.5,0.1C188,34.7,187.6,34.5,187.5,34.2z M187.5,29.6L187.5,29.6
				c0.2-0.4,0.6-0.6,0.9-0.6h0c0.2,0,0.3,0,0.5,0.1c0.5,0.2,0.7,0.9,0.5,1.4c-0.2,0.4-0.5,0.6-0.9,0.6c-0.2,0-0.3,0-0.4-0.1
				c-0.2-0.1-0.4-0.3-0.5-0.6C187.3,30.1,187.3,29.9,187.5,29.6z M190.2,35.7c0.1-0.5,0.5-0.8,1-0.8c0.1,0,0.2,0,0.2,0
				c0.6,0.1,0.9,0.7,0.8,1.2c-0.1,0.5-0.5,0.8-1,0.8c-0.1,0-0.1,0-0.2,0c0,0,0,0-0.1,0l0,0C190.4,36.8,190.1,36.3,190.2,35.7z
				 M191,26.8L191,26.8L191,26.8L191,26.8C191.1,26.8,191.1,26.8,191,26.8L191,26.8c0.1,0,0.2,0,0.3,0c0.5,0,0.9,0.3,1,0.8
				c0.1,0.6-0.2,1.1-0.8,1.2c-0.1,0-0.1,0-0.2,0c-0.5,0-0.9-0.3-1-0.8C190.1,27.4,190.5,26.9,191,26.8z M193.7,35.1
				c0-0.3,0.2-0.5,0.4-0.7c0.2-0.2,0.4-0.2,0.7-0.2h0c0.3,0,0.6,0.1,0.8,0.4c0.4,0.4,0.3,1.1-0.1,1.4l-0.1,0
				c-0.2,0.1-0.4,0.2-0.6,0.2c-0.3,0-0.6-0.1-0.8-0.4C193.8,35.6,193.7,35.4,193.7,35.1z M194,28c0.2-0.2,0.5-0.4,0.8-0.4
				c0.2,0,0.4,0.1,0.6,0.2l0,0c0.4,0.4,0.5,1,0.2,1.4c-0.2,0.2-0.5,0.4-0.8,0.4c-0.2,0-0.5-0.1-0.6-0.2
				C193.8,29.1,193.7,28.4,194,28z M197.4,31.9L197.4,31.9c0,0.6-0.5,1.1-1,1.1h0c-0.6,0-1-0.5-1-1c0-0.6,0.5-1,1-1
				C197,30.9,197.4,31.3,197.4,31.9z M178,144.4c-0.1,0.2-0.2,0.4-0.4,0.5l-2.3,1.3l1.4,2.3c0.1,0.2,0.2,0.5,0.1,0.7
				c-0.1,0.2-0.2,0.4-0.4,0.6c-0.1,0.1-0.3,0.1-0.5,0.1c-0.3,0-0.6-0.2-0.8-0.4l-1.4-2.3l-2.7,1.5c-0.1,0.1-0.3,0.1-0.4,0.1
				c-0.3,0-0.6-0.2-0.8-0.5c-0.2-0.4-0.1-1,0.3-1.2l2.7-1.5l-1.3-2.2c-0.1-0.2-0.2-0.5-0.1-0.7c0.1-0.2,0.2-0.4,0.4-0.6
				c0.1-0.1,0.3-0.1,0.5-0.1c0.3,0,0.6,0.2,0.8,0.4l1.3,2.2l2.3-1.3c0.1-0.1,0.3-0.1,0.4-0.1c0.3,0,0.6,0.2,0.8,0.5
				C178,143.9,178,144.2,178,144.4z M167.2,254.5c-3.1,0-5.7-2.2-6.3-5l-1.7,1.1c-0.1,0.1-0.2,0.1-0.3,0.1c-0.2,0-0.4-0.1-0.5-0.3
				c-0.2-0.3-0.1-0.6,0.2-0.8l1.6-1.1l-1.6-1.1c-0.3-0.2-0.3-0.5-0.2-0.8c0.2-0.3,0.5-0.3,0.8-0.2l1.5,1c0.3-3.3,3.1-5.9,6.5-5.9
				c3.6,0,6.5,2.9,6.5,6.5C173.7,251.6,170.8,254.5,167.2,254.5z M147.9,200.1l16.5-13.2l4.2,20.7L147.9,200.1z M147.5,94.8
				l-2.8,2.8c-0.2,0.2-0.4,0.3-0.6,0.3c-0.2,0-0.5-0.1-0.6-0.3c-0.2-0.2-0.3-0.4-0.3-0.6c0-0.2,0.1-0.5,0.3-0.6l2.8-2.8
				c0.2-0.2,0.4-0.3,0.6-0.3s0.5,0.1,0.6,0.3C147.9,93.9,147.9,94.5,147.5,94.8z M139,91.7c-0.5,0-0.9-0.4-0.9-0.9
				c0-0.5,0.4-0.9,0.9-0.9h6.5c0.5,0,0.9,0.4,0.9,0.9c0,0.5-0.4,0.9-0.9,0.9H139z M133,251.9l-1.2,7.1l-0.1,0.6l-0.4-0.4l-9.3-8.9
				l-0.8-0.7l1,0.2l10.4,1.7l0.3,0.1L133,251.9z M111.5,191.3c0-0.1,11-9.6,11-9.6l5.3,5L111.5,191.3z M132.2,132.2
				c0,2.9-2.4,5.3-5.3,5.3c-2.9,0-5.3-2.4-5.3-5.3c0-2.9,2.4-5.3,5.3-5.3C129.8,126.9,132.2,129.2,132.2,132.2z M110.6,56.5l0.7,1
				L123.5,76l19.2,11.7l1.2,0.7l-1.3-0.4l-15.3-5l-0.3-0.1l-8.6-2.8l-0.1,0l0-0.1L111,57.7L110.6,56.5z M109.1,195.2L109.1,195.2
				C109.1,195.2,109.1,195.3,109.1,195.2L109.1,195.2L109.1,195.2L109.1,195.2c-0.2,0.1-0.3,0.1-0.4,0.1c-0.1,0-0.1,0-0.2,0
				c-0.3-0.1-0.6-0.3-0.7-0.7c-0.1-0.2-0.1-0.5,0-0.8c0.1-0.2,0.3-0.4,0.6-0.5c0.1,0,0.2-0.1,0.3-0.1c0.4,0,0.8,0.3,0.9,0.7
				C109.9,194.5,109.6,195.1,109.1,195.2z M107.5,197.5C107.5,197.5,107.4,197.5,107.5,197.5c-0.2,0.1-0.3,0.1-0.4,0.1
				c-0.1,0-0.1,0-0.2,0c-0.3-0.1-0.6-0.3-0.7-0.7c-0.2-0.5,0.1-1.1,0.6-1.3c0.1,0,0.2-0.1,0.3-0.1c0.4,0,0.8,0.3,1,0.7
				C108.2,196.8,108,197.3,107.5,197.5z M105.9,191.3c-0.1,0.2-0.3,0.4-0.5,0.5c-0.1,0-0.2,0.1-0.4,0.1c-0.1,0-0.1,0-0.2,0
				c-0.3-0.1-0.6-0.3-0.7-0.6c-0.2-0.5,0-1.1,0.5-1.3l0,0l0,0l0,0l0,0l0,0c0.1,0,0.2-0.1,0.4-0.1c0.4,0,0.8,0.2,0.9,0.6
				C106,190.8,106,191,105.9,191.3z M104.9,196.7c-0.2,0.2-0.5,0.4-0.8,0.4c-0.1,0-0.1,0-0.2,0c-0.2,0-0.3-0.1-0.4-0.2l0,0
				c-0.2-0.2-0.3-0.4-0.3-0.7c0-0.3,0.1-0.5,0.2-0.7c0.2-0.2,0.5-0.4,0.8-0.4c0.2,0,0.5,0.1,0.6,0.2l0,0
				C105.2,195.6,105.3,196.3,104.9,196.7z M103,194.2L103,194.2L103,194.2C102.9,194.2,102.9,194.2,103,194.2
				c-0.6-0.1-0.9-0.6-0.8-1.1l0,0l0,0c0,0,0,0,0,0h0c0.1-0.5,0.5-0.8,1-0.8c0.1,0,0.1,0,0.2,0c0.3,0,0.5,0.2,0.6,0.4
				c0.2,0.2,0.2,0.5,0.2,0.7c-0.1,0.5-0.5,0.8-1,0.8C103.1,194.2,103,194.2,103,194.2z M101.6,24.8c-0.1,0.2-0.2,0.3-0.4,0.4
				c-0.2,0.1-0.3,0.1-0.5,0.1c-0.2,0-0.3,0-0.5-0.1l-2.8-1.4l-1.7,3.2c-0.1,0.1-0.2,0.3-0.3,0.4c-0.2,0.1-0.3,0.1-0.5,0.1
				c-0.2,0-0.3,0-0.5-0.1c-0.2-0.1-0.4-0.3-0.5-0.6c-0.1-0.3,0-0.5,0.1-0.8l1.7-3.1l-2.6-1.4c-0.2-0.1-0.4-0.3-0.5-0.6
				c-0.1-0.3-0.1-0.5,0.1-0.8c0.2-0.3,0.5-0.5,0.9-0.5c0.2,0,0.3,0,0.5,0.1l2.6,1.4l1.5-2.7c0.2-0.3,0.5-0.5,0.9-0.5
				c0.2,0,0.3,0,0.5,0.1c0.5,0.3,0.7,0.9,0.4,1.3L98.5,22l2.7,1.4C101.7,23.7,101.9,24.3,101.6,24.8z M99.2,228.6c-1.1,0-2-0.9-2-2
				c0-1.1,0.9-2,2-2c1.1,0,2,0.9,2,2C101.2,227.7,100.3,228.6,99.2,228.6z M92.9,263.5c-0.1,0.2-0.3,0.4-0.6,0.4c-0.1,0-0.1,0-0.2,0
				l-3-1c-0.6,0.9-1.6,1.6-2.8,1.6c-1.8,0-3.2-1.4-3.2-3.2c0-0.1,0-0.2,0-0.3l-3.6-1.2c-0.3-0.1-0.5-0.4-0.4-0.7
				c0.1-0.3,0.4-0.5,0.7-0.4l3.6,1.2c0.5-1.1,1.6-1.8,2.9-1.8c1.8,0,3.2,1.4,3.2,3.2c0,0.2,0,0.4,0,0.5l2.9,0.9
				C92.9,262.9,93,263.2,92.9,263.5z M76,155.5c0-0.2,0-0.4,0.1-0.6v0v0c0.3-1.6,1.7-2.8,3.4-2.8c1.9,0,3.4,1.5,3.4,3.4
				c0,1.9-1.5,3.4-3.4,3.4C77.5,158.9,76,157.4,76,155.5z M76.1,96.7h-0.7l0.4-0.5l5.7-7.1l1.6-2l-1,2.3l-2.4,5.3l2.7,0.1l0.6,0
				l-0.4,0.5l-6.3,8.8l-1.7,2.4l1.1-2.7l3-7.1H76.1z M68,46.3c-0.3,2.5-1.5,4.9-3.3,6.6c-2,1.8-4.5,2.8-7.1,2.8
				c-3.7,0-7.1-1.9-9-5.1c-1.7,0.3-3.1,0.4-4.2,0.5c-0.2,0-0.4,0-0.5,0c-3,0-3.7-1-4.1-2l0,0l0,0l0-0.1l0,0l0,0
				c0-0.1-0.4-1.2,0.4-2.5c1-1.7,3.5-3,7.2-3.7c1.1-4.8,5.4-8.3,10.3-8.3c3.3,0,6.3,1.5,8.3,4c0.8-0.1,2.6-0.4,4.4-0.4
				c2.2,0,3.9,0.4,4.8,1.1c0.7,0.5,1.1,1.1,1.2,1.9C76.6,43.9,72.1,45.4,68,46.3z M60.9,223.8c-0.7,0.8-1.7,1.2-2.8,1.2
				c-1,0-2-0.4-2.7-1.1c-0.9-0.9-1.4-2.1-1.4-3.3c0-1.3,0.5-2.4,1.3-3.4c0.1-0.1,0.3-0.2,0.5-0.2c0.2,0,0.4,0.1,0.5,0.2
				c0.1,0.1,0.2,0.3,0.2,0.5c0,0.2-0.1,0.4-0.2,0.5c-0.6,0.6-0.9,1.5-0.9,2.3c0,0.9,0.4,1.7,1,2.3c0.5,0.5,1.1,0.7,1.7,0.7
				c0.7,0,1.3-0.3,1.8-0.7c0.3-0.4,0.5-0.8,0.5-1.3c0-0.2,0-0.3-0.1-0.5c0.1,0.5-0.1,1.1-0.5,1.5c-0.4,0.4-0.9,0.6-1.5,0.6
				c-0.5,0-1-0.2-1.4-0.6c-0.4-0.4-0.7-1-0.7-1.7c0-0.6,0.2-1.2,0.7-1.7c0.5-0.5,1.2-0.8,1.9-0.8h0c0.7,0,1.4,0.3,1.9,0.8
				c0.6,0.6,1,1.4,1,2.3C61.9,222.3,61.5,223.2,60.9,223.8z M49.4,180.2l-3,10l-0.2,0.6l-0.4-0.5l-6.2-8.7l-0.1-0.2l0.1-0.2l3.7-7.9
				l0.2-0.5l0.3,0.4l5.6,6.6l0.1,0.1L49.4,180.2z M53.8,138.2c0,0.3-0.3,0.6-0.6,0.6c-0.3,0-0.6-0.3-0.6-0.6c0-0.3,0.3-0.6,0.6-0.6
				C53.5,137.6,53.8,137.8,53.8,138.2z M52.6,134.1l-0.4-0.8c-0.3-0.6-0.6-1.2-0.9-1.8c-0.3-0.6-0.6-1.2-0.9-1.8l-0.3-0.6l8.3-2.4
				L52.6,134.1z M44.9,130.6l1.9-6.3l5.3,10.3l-3.7,3.5l7.6,3.7c0.3,0.1,0.4,0.5,0.3,0.8c-0.1,0.2-0.3,0.3-0.5,0.3
				c-0.1,0-0.2,0-0.3-0.1l-8-3.9l-7.3,7l2.8-9.2l-7.2-3.5L44.9,130.6z M35.1,87.8c-0.6,0.4-1.2,0.6-1.9,0.6c-0.2,0-0.3,0-0.5,0
				c-2.1-0.3-3.6-2.3-3.3-4.4c0.2-1.2,0.8-2.3,1.8-3.1c1-0.8,2.2-1.1,3.5-0.9c0.3,0,0.5,0.3,0.5,0.7c0,0.3-0.3,0.5-0.7,0.5
				c-0.9-0.1-1.9,0.1-2.6,0.7c-0.8,0.6-1.2,1.4-1.4,2.3c-0.2,1.5,0.8,2.9,2.3,3.1c0.5,0.1,1.1-0.1,1.5-0.4c0.4-0.3,0.7-0.8,0.8-1.4
				c0.1-0.4,0-0.8-0.3-1.1c-0.2-0.3-0.6-0.5-1-0.6c-0.6-0.1-1.2,0.3-1.3,0.9c-0.1,0.4,0.2,0.8,0.7,0.9c0.3,0,0.5-0.2,0.6-0.4
				c0-0.3,0.3-0.5,0.7-0.5c0.3,0,0.5,0.3,0.5,0.7c-0.1,0.9-1,1.5-1.9,1.4c-1.1-0.2-1.8-1.1-1.6-2.2c0.2-1.2,1.3-2.1,2.6-1.9
				c0.7,0.1,1.3,0.5,1.8,1.1c0.4,0.6,0.6,1.3,0.5,2C36.3,86.5,35.8,87.3,35.1,87.8z M25.6,253.1l-1.6,7.5l-2.8-7.1l-7-1.8l7.6-2
				l1.4-7.8l2.2,7.5l7.6,1.5L25.6,253.1z M16.2,261.3c-0.8,0-1.5-0.7-1.5-1.5c0-0.8,0.7-1.5,1.5-1.5c0.8,0,1.5,0.7,1.5,1.5
				C17.7,260.7,17,261.3,16.2,261.3z M107.2,190.7c0.2-0.2,0.5-0.4,0.8-0.4c0.2,0,0.4,0.1,0.6,0.2l0,0c0.2,0.2,0.3,0.4,0.4,0.7
				c0,0.3,0,0.5-0.2,0.7c-0.2,0.2-0.5,0.4-0.8,0.4c-0.1,0-0.1,0-0.2,0c-0.2,0-0.3-0.1-0.4-0.2c-0.2-0.2-0.4-0.4-0.4-0.7
				C107,191.2,107,190.9,107.2,190.7z M130.9,69.7l12.7,18.1l-16-17.2L125.6,50L130.9,69.7z M139.5,35.1c0-0.2,0.2-0.5,0.4-0.6
				c0.2-0.1,0.4-0.2,0.6-0.2c0.3,0,0.6,0.1,0.7,0.4c0.3,0.4,0.2,1-0.2,1.3c-0.2,0.1-0.4,0.2-0.6,0.2c-0.3,0-0.6-0.1-0.7-0.4
				C139.5,35.6,139.4,35.4,139.5,35.1z M148,87.6c0,0.2-0.1,0.5-0.3,0.6c-0.2,0.2-0.4,0.3-0.6,0.3c-0.2,0-0.5-0.1-0.6-0.3l-3-3
				c-0.4-0.4-0.4-0.9,0-1.3c0.2-0.2,0.4-0.3,0.6-0.3c0.2,0,0.5,0.1,0.6,0.3l3,3C147.9,87.1,148,87.3,148,87.6z M142.2,35.6
				c0.1-0.4,0.5-0.7,0.9-0.7c0.1,0,0.2,0,0.2,0l5.1,1.3c0.2,0.1,0.4,0.2,0.6,0.4c0.1,0.2,0.2,0.5,0.1,0.7c0,0.2-0.2,0.4-0.3,0.5
				c-0.2,0.1-0.4,0.2-0.6,0.2c-0.1,0-0.1,0-0.2,0l-5.1-1.3c-0.2-0.1-0.4-0.2-0.6-0.4C142.2,36.1,142.2,35.9,142.2,35.6z M151.2,95.6
				v6.5c0,0.5-0.4,0.9-0.9,0.9c-0.5,0-0.9-0.4-0.9-0.9v-6.5c0-0.5,0.4-0.9,0.9-0.9C150.8,94.7,151.2,95.1,151.2,95.6z M150.3,89.8
				c0.5,0,1,0.4,1,1c0,0.5-0.4,1-1,1c-0.5,0-1-0.4-1-1C149.3,90.2,149.8,89.8,150.3,89.8z M149.4,79.4c0-0.5,0.4-0.9,0.9-0.9
				c0.5,0,0.9,0.4,0.9,0.9v6.8c0,0.5-0.4,0.9-0.9,0.9c-0.5,0-0.9-0.4-0.9-0.9V79.4z M151.1,37.4c0.2-0.1,0.4-0.2,0.6-0.2
				c0.3,0,0.6,0.1,0.7,0.4c0.2,0.2,0.2,0.4,0.2,0.7c0,0.2-0.2,0.5-0.4,0.6c-0.2,0.1-0.4,0.2-0.6,0.2c-0.3,0-0.6-0.1-0.7-0.4
				C150.6,38.3,150.7,37.7,151.1,37.4z M155.8,84c0.2-0.2,0.4-0.3,0.6-0.3c0.2,0,0.5,0.1,0.6,0.3c0.4,0.4,0.4,0.9,0,1.3l-3,3
				c-0.2,0.2-0.4,0.3-0.6,0.3c-0.2,0-0.5-0.1-0.6-0.3c-0.4-0.4-0.4-0.9,0-1.3L155.8,84z M157.4,97c0,0.2-0.1,0.5-0.3,0.6
				c-0.2,0.2-0.4,0.3-0.6,0.3c-0.2,0-0.5-0.1-0.6-0.3l-2.7-2.7c-0.4-0.4-0.4-0.9,0-1.3c0.2-0.2,0.4-0.3,0.6-0.3s0.5,0.1,0.6,0.3
				l2.7,2.7C157.3,96.5,157.4,96.8,157.4,97z M161.6,89.9c0.5,0,0.9,0.4,0.9,0.9c0,0.5-0.4,0.9-0.9,0.9H155c-0.5,0-0.9-0.4-0.9-0.9
				c0-0.5,0.4-0.9,0.9-0.9H161.6z M295.9,13.6c0.2-2.6,0.3-5.4-0.4-8c-1.7-6.1-9.1-5.5-13.7-3.8c-2.8,1.1-5.4,2.6-7.9,4.2
				c-2.8,1.8-5.8,3.5-8.6,5.3c-1.7,1.1-3.3,2-5.4,1.2c-3-1.1-5.4-3.6-7.5-5.9c-2.2-2.4-4.7-4.3-7.9-5.2c-3.5-1-7.3,0.2-10.5,1.6
				c-3.4,1.5-6.7,3.4-10.5,4c-3.9,0.6-7.9-0.1-11.7-0.9c-8.2-1.8-16-5.1-24.4-5.9c-8.7-0.9-17.5,1-26,2.5c-4.3,0.8-8.7,1.4-13.1,1.6
				c-4.5,0.2-9.1-0.1-13.7-0.2C125.3,4,115.9,4,106.5,4c-9.3,0-18.7,0.5-28,0.4c-9-0.2-18.1-1.1-27.1-1C45.2,3.4,39,4.4,33,5.5
				c-6,1.1-12,2.7-17.4,5.4c-6,3-8.3,9.4-10,15.5c-2.4,8.3-3.1,16.9-2.7,25.5C3.1,60.3,4.3,68.7,5,77.1c0.8,9.3,0.4,18.5-0.1,27.8
				c-0.5,9.6-1.1,19.2-1.7,28.8C2,152.8,1.1,171.9,0.6,191c-0.4,18.9-0.8,37.7-0.5,56.6c0.2,9.3,0.6,18.5,1.5,27.8
				c0.2,2.2,0.4,4.4,0.7,6.6c0.2,1.9,0.3,3.9,0.9,5.7c0.8,2.5,2.8,4.3,5.1,5.4c2.7,1.2,5.9,1.1,8.8,0.6c1.7-0.3,3.4-0.7,5.1-1.3
				c1.7-0.5,3.7-0.2,5.4,0c5.8,0.6,11.3,2,17.2,1.2c3.9-0.5,7.6-1.7,11.1-3.2c2.5-1,4.9-2.4,7.5-3c6.2-1.5,13.1-0.3,19.2,0.9
				c3.6,0.7,7,2.2,10.6,3c3.9,0.9,8,1.2,11.9,0.3c3.2-0.7,6.3-2.4,9.1-4.2c1.7-1.1,3.3-2.1,5.3-2c3.6,0.2,7,2,10.4,3.3
				c3.7,1.4,7.5,2.5,11.4,3c3.6,0.5,7.4,0.4,10.9-0.8c1.5-0.5,3.2-1.2,4.3-2.3c1.2-1.1,1.9-2.5,2.7-3.9c0.6-1,1.3-2.6,2.6-2.8
				c1.7-0.2,3.5,0.1,5.1,0.5c3.5,0.7,6.7,1.6,10.3,1.2c2.7-0.2,5.4-0.7,7.9-2c2.5-1.4,4.3-3.7,5.9-6c4-5.8,5.8-13.2,6.8-20
				c1.1-7.4,1.4-15,1.6-22.5c0.2-7.3,0.7-14.6,1.6-21.8c1.2-9.5,2.8-19,4.5-28.4c1.7-9.4,3.6-18.7,5.4-28.1
				c0.8-3.9,1.7-7.8,2.1-11.7c0.3-2.7,0.5-5.5,0.9-8.2c0.8-5.1,2.7-10.8,8.3-12.4c1-0.3,2.8-0.6,3.8-0.3c0.2,0.1,0.2,0.1,0.2,0.1
				c0.3,0.3,0.5,0.7,0.7,1.1c1.5,2.2,3.8,3.6,5.6,5.4c1,1,2,1.8,3.3,2.4c1.9,0.8,4.3,0.8,6.4,1c5.5,0.4,11,1.3,16.5,1.5
				c2.5,0.1,5.1,0,7.5-0.7c2.7-0.8,5.1-2.2,7.3-3.9c3.3-2.6,5.9-5.9,8.5-9.2c0,0.1,0,0.3,0,0.4c0,1.1,1.5,1.6,2.4,1.4
				c3-0.6,4.9-3.1,6.3-5.6c1.9-3.6,2.7-7.7,3.3-11.6c1.7-10.3,1.7-20.9,1.6-31.3c-0.1-8.6-0.6-17.1-0.6-25.7v-14
				c0-3.8-0.2-7.5,0.1-11.3C295.3,19.5,295.7,16.6,295.9,13.6z"/>
			<defs>
				<filter id="Adobe_OpacityMaskFilter_37_" filterUnits="userSpaceOnUse" x="246" y="102" width="13" height="9">
					<feColorMatrix  type="matrix" values="1 0 0 0 0  0 1 0 0 0  0 0 1 0 0  0 0 0 1 0"/>
				</filter>
			</defs>
			<mask maskUnits="userSpaceOnUse" x="246" y="102" width="13" height="9" id="mask-2_38_">
				<g class="st76">
					<polygon id="path-1_38_" class="st2" points="0,353 296,353 296,0 0,0 					"/>
				</g>
			</mask>
			<path id="Fill-59" class="st77" d="M247.2,111l11.8-7.6c-0.1-0.5-0.2-0.9-0.3-1.4l-12.7,8.2C246.4,110.5,246.8,110.8,247.2,111"
				/>
			<defs>
				<filter id="Adobe_OpacityMaskFilter_38_" filterUnits="userSpaceOnUse" x="243" y="96" width="6" height="3">
					<feColorMatrix  type="matrix" values="1 0 0 0 0  0 1 0 0 0  0 0 1 0 0  0 0 0 1 0"/>
				</filter>
			</defs>
			<mask maskUnits="userSpaceOnUse" x="243" y="96" width="6" height="3" id="mask-2_39_">
				<g class="st78">
					<polygon id="path-1_39_" class="st2" points="0,353 296,353 296,0 0,0 					"/>
				</g>
			</mask>
			<path id="Fill-60" class="st79" d="M243,99l6-3C246.5,96.3,244.3,97.4,243,99"/>
		</g>
		<path id="Combined-Shape" class="st80" d="M467,264.1l-1.6-2.4c-0.2-0.2-0.5-0.3-0.7-0.1s-0.3,0.5-0.1,0.7l1.6,2.3l-3.4,1.9
			c-0.2,0.1-0.3,0.4-0.2,0.7c0.1,0.2,0.4,0.3,0.7,0.2l3.5-2l1.9,2.8c0.2,0.2,0.5,0.3,0.7,0.1s0.3-0.5,0.1-0.7l-1.8-2.8l2.7-1.5
			c0.2-0.1,0.3-0.4,0.2-0.7c-0.1-0.2-0.4-0.3-0.7-0.2L467,264.1z M469.3,261.7c0.7-0.4,1.6-0.2,2,0.6c0.4,0.7,0.2,1.6-0.6,2l-1.7,1
			l1.2,1.9c0.5,0.7,0.3,1.6-0.4,2.1c-0.7,0.5-1.6,0.3-2.1-0.4l-1.4-2l-2.6,1.5c-0.7,0.4-1.6,0.2-2-0.6c-0.4-0.7-0.2-1.6,0.6-2
			l2.5-1.4l-1-1.5c-0.5-0.7-0.3-1.6,0.4-2.1c0.7-0.5,1.6-0.3,2.1,0.4l1.1,1.6L469.3,261.7z M467.6,263.2l-0.7-0.2l0.4-0.2
			L467.6,263.2z"/>
		<path id="Combined-Shape-Copy" class="st80" d="M666,30.1l-1.6-2.4c-0.2-0.2-0.5-0.3-0.7-0.1c-0.2,0.2-0.3,0.5-0.1,0.7l1.6,2.3
			l-3.4,1.9c-0.2,0.1-0.3,0.4-0.2,0.7c0.1,0.2,0.4,0.3,0.7,0.2l3.5-2l1.9,2.8c0.2,0.2,0.5,0.3,0.7,0.1s0.3-0.5,0.1-0.7l-1.8-2.8
			l2.7-1.5c0.2-0.1,0.3-0.4,0.2-0.7c-0.1-0.2-0.4-0.3-0.7-0.2L666,30.1z M668.3,27.7c0.7-0.4,1.6-0.2,2,0.6s0.2,1.6-0.6,2l-1.7,1
			l1.2,1.9c0.5,0.7,0.3,1.6-0.4,2.1c-0.7,0.5-1.6,0.3-2.1-0.4l-1.4-2l-2.6,1.5c-0.7,0.4-1.6,0.2-2-0.6s-0.2-1.6,0.6-2l2.5-1.4
			l-1-1.5c-0.5-0.7-0.3-1.6,0.4-2.1c0.7-0.5,1.6-0.3,2.1,0.4l1.1,1.6L668.3,27.7z"/>
		<path id="Path-4-Copy" d="M496.6,181.3l-4.7,7.1l-6.2-2.5l-1.2-6l4.3-5.6l8,6.4l-7.7-2.3l-1.4,2.3l0.5,2.9l2.8,0.9L496.6,181.3z
			 M489,175.7l-3.4,4.4l1,5.1l4.9,2l1.9-2.9l-2.2,1.3l-3.8-1.3l-0.6-3.8l2-3.3l3.5,1L489,175.7z"/>
		<path id="Path-6" class="st80" d="M465.9,108c-0.3-0.3-0.8-0.2-1.6,0.5c-0.7,0.6-0.6,1.2-0.2,1.4c0.4,0.3,1.1-0.1,1.4-1.1l0.9,0.3
			C466.3,108.7,466.1,108.3,465.9,108z M463.6,110.8c-1-0.6-1.1-2,0-3.1c1.1-1,2.2-1.2,2.9-0.5c0.6,0.6,0.9,1.6,0.9,2.7
			c0,1.3-1.7,2.2-3.5,2.2c-2,0-3.5-1.1-3.5-3.2c0-3,1.9-4.5,5.5-4.5v1c-3.1,0-4.5,1.1-4.5,3.5c0,1.5,1,2.2,2.5,2.2
			c1.3,0,2.5-0.7,2.5-1.2c0-0.3,0-0.5-0.1-0.7C465.9,110.8,464.7,111.4,463.6,110.8z"/>
		<path id="Path-6-Copy" class="st80" d="M163.9,34c-0.3-0.3-0.8-0.2-1.6,0.5c-0.7,0.6-0.6,1.2-0.2,1.4c0.4,0.3,1.1-0.1,1.4-1.1
			l0.9,0.3C164.3,34.7,164.1,34.3,163.9,34z M161.6,36.8c-1-0.6-1.1-2,0-3.1c1.1-1,2.2-1.2,2.9-0.5c0.6,0.6,0.9,1.6,0.9,2.7
			c0,1.3-1.7,2.2-3.5,2.2c-2,0-3.5-1.1-3.5-3.2c0-3,1.9-4.5,5.5-4.5v1c-3.1,0-4.5,1.1-4.5,3.5c0,1.5,1,2.2,2.5,2.2
			c1.3,0,2.5-0.7,2.5-1.2c0-0.3,0-0.5-0.1-0.7C163.9,36.8,162.7,37.4,161.6,36.8z"/>
		<path id="Path-5-Copy" class="st80" d="M423,203.2l-0.4,0.4l0-0.3L423,203.2z M423.4,196.9l1.6,6.3l5.3,1.1l-4.8,1.2l-1.3,5.1
			l-2-4.6l-5.1-1.4l5.5-1.4L423.4,196.9z M423.5,204l-2.5,0.6l1.9,0.6l1,2.4l0.7-2.9l1.2-0.3l-1.7-0.4l-0.4-1.7L423.5,204z"/>
		<path id="Oval-Copy" class="st80" d="M402,138.5c-1.4,0-2.5-1.4-2.5-3c0-1.6,1.5-3,3-3s3,1.4,3,3
			C405.5,137.1,403.5,138.5,402,138.5z M402,137.5c1,0,2.5-1.1,2.5-2c0-1-1.1-2-2-2s-2,1-2,2C400.5,136.6,401.2,137.5,402,137.5z"/>
		<path id="Oval-Copy-2" class="st80" d="M549.6,131.5c-1.2,0-2.1-1.1-2.1-2.5c0-1.3,1.3-2.5,2.5-2.5s2.5,1.2,2.5,2.5
			C552.5,130.3,550.9,131.5,549.6,131.5z M549.6,130.5c0.8,0,1.9-0.8,1.9-1.5c0-0.7-0.8-1.5-1.5-1.5s-1.5,0.8-1.5,1.5
			C548.5,129.8,549,130.5,549.6,130.5z"/>
		<path id="Oval-Copy-3" class="st80" d="M538.6,165.5c-1.2,0-2.1-1.1-2.1-2.5c0-1.3,1.3-2.5,2.5-2.5s2.5,1.2,2.5,2.5
			C541.5,164.3,539.9,165.5,538.6,165.5z M538.6,164.5c0.8,0,1.9-0.8,1.9-1.5c0-0.7-0.8-1.5-1.5-1.5s-1.5,0.8-1.5,1.5
			C537.5,163.8,538,164.5,538.6,164.5z"/>
		<path id="Path-4" d="M793.5,161.4l-6.8,9.9l-9.5-3.7l-1.9-9.2l6.7-8.4l11.3,8.9l-11-3.2l-2.4,3.9l0.8,4.7l4.8,1.6L793.5,161.4z
			 M782.2,151.4l-5.8,7.3l1.7,8.2l8.3,3.2l3.9-5.7l-4.6,2.5l-5.8-1.9l-1-5.7l3-4.8l6.8,2L782.2,151.4z"/>
		<path id="Path-4-Copy_1_" class="st80" d="M566.5,96.2l-0.4,0l0.2-0.1L566.5,96.2z M571.4,93.3l-4.4,6.4l-5.6-2.2l-1.1-5.3l4-4.9
			l7.5,5.7l-7.2-2.1l-1.2,1.9l0.4,2.4l2.5,0.8L571.4,93.3z M564.4,88.7l-3,3.7l0.9,4.3l4.4,1.7l1.6-2.2l-1.8,1l-3.5-1.1l-0.6-3.4
			l1.8-2.9l2.8,0.8L564.4,88.7z"/>
		<path id="Path-6_1_" class="st80" d="M619.6,139.8c-0.2,0.1-0.3,0.1-0.5,0.1C619.3,139.8,619.5,139.8,619.6,139.8z M620.8,138.9
			c0-0.1,0-0.2,0-0.3c-0.3,0.6-0.7,1-1.1,1.2C620.3,139.6,620.8,139.2,620.8,138.9z M620.3,137.1c-0.2-0.2-0.6-0.2-1.2,0.4
			c-0.5,0.5-0.5,1-0.2,1.2c0.3,0.2,0.7-0.1,1-1l0.7,0.2C620.6,137.6,620.5,137.3,620.3,137.1z M618.4,139.6c-0.9-0.6-1-1.8,0-2.8
			c0.9-0.9,1.9-1.1,2.6-0.4c0.5,0.5,0.8,1.4,0.8,2.4c0,1.1-1.5,2-3,2c-1.7,0-3-1-3-2.9c0-2.7,1.6-4.1,4.7-4.1v1
			c-2.5,0-3.7,1-3.7,3.1c0,1.3,0.8,1.9,2,1.9c0.1,0,0.3,0,0.4,0C618.9,139.9,618.7,139.8,618.4,139.6z"/>
		<path id="Path-5" class="st80" d="M642,196.3l-0.4,0.4l0-0.3L642,196.3z M642.8,186.9l2.4,9.5l8,1.7l-7.1,1.8l-2.1,8.3l-3.2-7.4
			l-7.8-2.2l8.6-2.2L642.8,186.9z M642.6,197.1l-5.6,1.4l4.7,1.3l2.2,5.1l1.5-6l3.5-0.9l-4.4-1l-1.2-4.8L642.6,197.1z"/>
		<path id="Path-5-Copy_1_" class="st80" d="M721.5,130.1l1.5,5.5l5,1l-4.6,1.1l-1.2,4.4l-1.8-4l-4.8-1.3l5.1-1.2L721.5,130.1z
			 M721.7,136.4l-2,0.5l1.4,0.4l0.9,1.9l0.6-2.3l0.7-0.2l-1.2-0.2l-0.3-1.2L721.7,136.4z"/>
		<path id="Path-5-Copy-3" class="st80" d="M5.5,82.1l1.5,5.5l5,1l-4.6,1.1l-1.2,4.4l-1.8-4l-4.8-1.3l5.1-1.2L5.5,82.1z M5.7,88.4
			l-2,0.5l1.4,0.4L6,91.2l0.6-2.3l0.7-0.2l-1.2-0.2l-0.3-1.2L5.7,88.4z"/>
		<path id="Path-5-Copy-2" class="st80" d="M251.3-0.2l1.5,5.5l5,1l-4.6,1.1l-1.2,4.4l-1.8-4l-4.8-1.3l5.1-1.2L251.3-0.2z
			 M251.5,6.2l-2,0.5l1.4,0.4l0.9,1.9l0.6-2.3l0.7-0.2l-1.2-0.2L251.6,5L251.5,6.2z"/>
		<path id="Oval-Copy_1_" class="st80" d="M653.1,91.2c-1.4,0-2.5-1.1-2.5-2.5c0-1.4,1.1-2.5,2.5-2.5c1.4,0,2.5,1.1,2.5,2.5
			C655.6,90.1,654.5,91.2,653.1,91.2z M653.1,90.2c0.8,0,1.5-0.7,1.5-1.5c0-0.8-0.7-1.5-1.5-1.5c-0.8,0-1.5,0.7-1.5,1.5
			C651.6,89.6,652.3,90.2,653.1,90.2z"/>
	</g>
</g>
</svg>
